<svg width="48" height="48" viewBox="0 0 48 48" fill="none" xmlns="http://www.w3.org/2000/svg">
<path d="M5.55614 11.1697C5.55614 20.3923 0.778809 26.7257 0.778809 31.1697C0.778809 35.6137 3.33348 44.947 23.7775 44.947C44.2215 44.947 47.2215 32.391 47.2215 27.503C47.2228 4.61366 5.55614 -5.16368 5.55614 11.1697Z" fill="#EFEFEF"/>
<path d="M41.7363 4.47168L43.6219 2.58606L44.5647 3.52887L42.6791 5.41449L41.7363 4.47168Z" fill="#FFC405"/>
<path d="M41.9722 8.94922L42.915 8.00641L44.8006 9.89203L43.8578 10.8348L41.9722 8.94922Z" fill="#FFC405"/>
<path d="M36.5596 3.53906L37.5024 2.59625L39.388 4.48187L38.4452 5.42468L36.5596 3.53906Z" fill="#FFC405"/>
<path d="M39 11.6667V29.6667C39 31.1333 37.8 32.3333 36.3333 32.3333H21L14.3333 39V32.3333H11.6667C10.2 32.3333 9 31.1333 9 29.6667V11.6667C9 10.2 10.2 9 11.6667 9H36.3333C37.8 9 39 10.2 39 11.6667Z" fill="#F3F3F1"/>
<path d="M15.8425 20.5497C15.7332 20.6683 15.6665 20.827 15.6665 21.0003C15.6665 21.3683 15.9652 21.667 16.3332 21.667H18.3332V27.0003C18.3332 27.7363 18.9305 28.3337 19.6665 28.3337H28.3332C29.0692 28.3337 29.6665 27.7363 29.6665 27.0003V21.667H31.6665C32.0345 21.667 32.3332 21.3683 32.3332 21.0003C32.3332 20.827 32.2665 20.6683 32.1572 20.5497L23.9998 11.667L15.8425 20.5497Z" fill="#FF8083"/>
<path d="M17.3333 36V32.3333H14.6667C13.2 32.3333 12 31.1333 12 29.6667V11.6667C12 10.2 13.2 9 14.6667 9H11.6667C10.2 9 9 10.2 9 11.6667V29.6667C9 31.1333 10.2 32.3333 11.6667 32.3333H14.3333V39L17.3333 36Z" fill="#D5DBE1"/>
<path d="M21.3332 27.0003V21.667H19.3332C18.9652 21.667 18.6665 21.3683 18.6665 21.0003C18.6665 20.827 18.7332 20.6683 18.8425 20.5497L25.4998 13.3003L23.9998 11.667L15.8425 20.5497C15.7332 20.6683 15.6665 20.827 15.6665 21.0003C15.6665 21.3683 15.9652 21.667 16.3332 21.667H18.3332V27.0003C18.3332 27.7363 18.9305 28.3337 19.6665 28.3337H22.6665C21.9305 28.3337 21.3332 27.7363 21.3332 27.0003Z" fill="#4D53E0"/>
<path d="M14.3333 40C14.204 40 14.0747 39.9747 13.9507 39.924C13.5773 39.7693 13.3333 39.4053 13.3333 39V33.3333H11.6667C9.644 33.3333 8 31.6893 8 29.6667V11.6667C8 9.644 9.644 8 11.6667 8H36.3333C38.356 8 40 9.644 40 11.6667V29.6667C40 31.6893 38.356 33.3333 36.3333 33.3333H21.4147L15.0413 39.7067C14.8493 39.8987 14.5933 40 14.3333 40ZM11.6667 10C10.748 10 10 10.748 10 11.6667V29.6667C10 30.5853 10.748 31.3333 11.6667 31.3333H14.3333C14.8853 31.3333 15.3333 31.7813 15.3333 32.3333V36.5853L20.2933 31.6253C20.4813 31.4373 20.7347 31.332 21 31.332H36.3333C37.252 31.332 38 30.584 38 29.6653V11.6667C38 10.748 37.252 10 36.3333 10H11.6667Z" fill="#16365F"/>
<path d="M28.3332 29.3334H19.6665C18.3798 29.3334 17.3332 28.2867 17.3332 27V22.6667H16.3332C15.4145 22.6667 14.6665 21.9187 14.6665 21C14.6665 20.5814 14.8225 20.1814 15.1052 19.8734L23.2625 10.9907C23.6425 10.576 24.3558 10.576 24.7358 10.9907L32.8932 19.8734C33.1772 20.18 33.3332 20.5814 33.3332 21C33.3332 21.9187 32.5852 22.6667 31.6665 22.6667H30.6665V27C30.6665 28.2867 29.6198 29.3334 28.3332 29.3334ZM17.0918 20.6667H18.3332C18.8852 20.6667 19.3332 21.1147 19.3332 21.6667V27C19.3332 27.184 19.4825 27.3334 19.6665 27.3334H28.3332C28.5172 27.3334 28.6665 27.184 28.6665 27V21.6667C28.6665 21.1147 29.1145 20.6667 29.6665 20.6667H30.9078L23.9998 13.144L17.0918 20.6667Z" fill="#16365F"/>
<path d="M28 13.333H30V16.6663H28V13.333Z" fill="#16365F"/>
</svg>
