<svg width="48" height="48" viewBox="0 0 48 48" fill="none" xmlns="http://www.w3.org/2000/svg">
<path d="M42.4445 36.8305C42.4445 27.6083 47.2223 21.275 47.2223 16.8305C47.2223 12.3861 44.6667 3.05273 24.2223 3.05273C3.77783 3.05273 0.777832 15.6083 0.777832 20.4972C0.777831 43.3861 42.4445 53.1638 42.4445 36.8305Z" fill="#EFEFEF"/>
<path d="M32.8579 4.86426L33.8007 3.92145L35.6863 5.80707L34.7435 6.74988L32.8579 4.86426Z" fill="#FFC405"/>
<path d="M38.2852 10.2979L39.228 9.35505L41.1136 11.2407L40.1708 12.1835L38.2852 10.2979Z" fill="#FFC405"/>
<path d="M38.0425 5.80762L39.9281 3.922L40.8709 4.86481L38.9853 6.75043L38.0425 5.80762Z" fill="#FFC405"/>
<path d="M17.9992 36.6663H11.3332C9.86041 36.6663 8.6665 35.4724 8.6665 33.9997V11.333V11.333C8.6665 12.8058 9.86041 13.9997 11.3332 13.9997H29.9998V33.9997C29.9998 35.4724 28.8059 36.6663 27.3332 36.6663H17.9992Z" fill="#F3F3F1"/>
<path d="M27.3332 14.0003H11.3332C9.8665 14.0003 8.6665 12.8003 8.6665 11.3337V11.3337C8.6665 9.86699 9.8665 8.66699 11.3332 8.66699H27.3332V14.0003Z" fill="#FF8083"/>
<path d="M29.0431 38.6265L25.0361 39.3336L25.7432 35.3267L35.6427 25.4272C36.1634 24.9065 36.772 24.6708 37.2927 25.1915L38.9426 26.8414C39.4633 27.3621 39.4633 28.2063 38.9426 28.727L29.0431 38.6265Z" fill="#FF8083"/>
<path d="M28.4099 35.3267L37.9189 25.8177L37.2926 25.1914C36.772 24.6708 36.1634 24.9064 35.6427 25.4272L25.7432 35.3267L25.0361 39.3336L27.7885 38.8479L28.4099 35.3267Z" fill="#4D53E0"/>
<path d="M11.3332 33.9997V13.9997C9.86043 13.9997 8.6665 12.8057 8.6665 11.333V33.9997C8.6665 35.4724 9.86043 36.6663 11.3332 36.6663H13.9998C12.5271 36.6663 11.3332 35.4724 11.3332 33.9997Z" fill="#D5DBE1"/>
<path d="M11.3332 11.3337C11.3332 9.86703 12.5332 8.66699 13.9998 8.66699H11.3332C9.86654 8.66699 8.6665 9.86703 8.6665 11.3337C8.6665 12.8003 9.86654 14.0003 11.3332 14.0003H13.9998C12.5332 14.0003 11.3332 12.8003 11.3332 11.3337Z" fill="#4D53E0"/>
<path d="M25.0365 40C24.8607 40 24.6915 39.931 24.5652 39.8047C24.4115 39.6511 24.3425 39.4317 24.3803 39.2175L25.0873 35.2103C25.1107 35.0755 25.1758 34.9512 25.2722 34.8548L35.1719 24.9557C36.2136 23.9141 37.1941 24.1497 37.7644 24.7201L39.4141 26.3698C40.1941 27.1497 40.1941 28.418 39.4141 29.1979L29.5144 39.0977C29.418 39.1947 29.293 39.2591 29.1589 39.2826L25.1524 39.9896C25.1133 39.9968 25.0756 40 25.0365 40ZM29.043 38.6263H29.056H29.043ZM26.3633 35.6491L25.8581 38.5111L28.7201 38.0065L38.4714 28.2552C38.7318 27.9954 38.7318 27.5723 38.4714 27.3125L36.8217 25.6628C36.7396 25.5794 36.5847 25.4277 36.1146 25.8984L26.3633 35.6491Z" fill="#16365F"/>
<path d="M30 26.6667C29.6315 26.6667 29.3333 26.3685 29.3333 26V14.6667H11.3333C9.49479 14.6667 8 13.1712 8 11.3333C8 9.49544 9.49479 8 11.3333 8H27.3333C27.7018 8 28 8.29818 28 8.66667V13.3333H30C30.3685 13.3333 30.6667 13.6315 30.6667 14V26C30.6667 26.3685 30.3685 26.6667 30 26.6667ZM11.3333 9.33333C10.2305 9.33333 9.33333 10.2305 9.33333 11.3333C9.33333 12.4362 10.2305 13.3333 11.3333 13.3333H26.6667V9.33333H11.3333Z" fill="#16365F"/>
<path d="M20.6667 37.3337H11.3333C9.49479 37.3337 8 35.8382 8 34.0003V11.3337C8 10.9652 8.29818 10.667 8.66667 10.667C9.03516 10.667 9.33333 10.9652 9.33333 11.3337V34.0003C9.33333 35.1032 10.2305 36.0003 11.3333 36.0003H20.6667C21.0352 36.0003 21.3333 36.2985 21.3333 36.667C21.3333 37.0355 21.0352 37.3337 20.6667 37.3337Z" fill="#16365F"/>
</svg>
