<svg width="48" height="48" viewBox="0 0 48 48" fill="none" xmlns="http://www.w3.org/2000/svg">
<path d="M36.8306 42.444C27.6079 42.444 21.2746 47.2213 16.8306 47.2213C12.3866 47.2213 3.05322 44.6667 3.05322 24.2227C3.05322 3.77868 15.6092 0.777344 20.4972 0.777344C43.3866 0.777344 53.1639 42.444 36.8306 42.444Z" fill="#EFEFEF"/>
<path d="M40.6665 6.66699C39.5638 6.66699 38.6665 5.76966 38.6665 4.66699C38.6665 3.56432 39.5638 2.66699 40.6665 2.66699C41.7692 2.66699 42.6665 3.56432 42.6665 4.66699C42.6665 5.76966 41.7692 6.66699 40.6665 6.66699ZM40.6665 4.00032C40.2985 4.00032 39.9998 4.29899 39.9998 4.66699C39.9998 5.03499 40.2985 5.33366 40.6665 5.33366C41.0345 5.33366 41.3332 5.03499 41.3332 4.66699C41.3332 4.29899 41.0345 4.00032 40.6665 4.00032Z" fill="#FF5668"/>
<path d="M10 31.3337H32.6667V11.3337C32.6667 9.86033 31.4733 8.66699 30 8.66699H22H12.6667C11.1933 8.66699 10 9.86033 10 11.3337V31.3337Z" fill="#F3F3F1"/>
<path d="M30 24.667C34.4183 24.667 38 21.0853 38 16.667C38 12.2487 34.4183 8.66699 30 8.66699C25.5817 8.66699 22 12.2487 22 16.667C22 21.0853 25.5817 24.667 30 24.667Z" fill="#FFC405"/>
<path d="M24.6667 34.0003H32.6667V28.667H12.6667C11.1933 28.667 10 29.8603 10 31.3337C10 32.807 11.1933 34.0003 12.6667 34.0003H18H24.6667Z" fill="#FFC405"/>
<path d="M18 31.333V39.333L21.3333 36.6663L24.6667 39.333V31.333H18Z" fill="#F3F3F1"/>
<path d="M24.6667 16.667C24.6667 12.7043 27.5507 9.42299 31.3333 8.78699C30.8987 8.71366 30.4547 8.66699 30 8.66699C25.5813 8.66699 22 12.2483 22 16.667C22 21.0856 25.5813 24.667 30 24.667C30.4547 24.667 30.8987 24.6203 31.3333 24.547C27.5507 23.911 24.6667 20.6296 24.6667 16.667Z" fill="#41D5E2"/>
<path d="M15.3333 8.66699H12.6667C11.1933 8.66699 10 9.86033 10 11.3337V31.3337H12.6667V11.3337C12.6667 9.86033 13.86 8.66699 15.3333 8.66699Z" fill="#D5DBE1"/>
<path d="M12.6667 31.3337C12.6667 29.8603 13.86 28.667 15.3333 28.667H12.6667C11.1933 28.667 10 29.8603 10 31.3337C10 32.807 11.1933 34.0003 12.6667 34.0003H15.3333C13.86 34.0003 12.6667 32.807 12.6667 31.3337Z" fill="#41D5E2"/>
<path d="M20.6667 31.333H18V39.333L20.6667 37.1997V31.333Z" fill="#D5DBE1"/>
<path d="M10.0002 32C9.63216 32 9.3335 31.7013 9.3335 31.3333V11.3333C9.3335 9.496 10.8295 8 12.6668 8H20.6668C21.0348 8 21.3335 8.29867 21.3335 8.66667C21.3335 9.03467 21.0348 9.33333 20.6668 9.33333H12.6668C11.5642 9.33333 10.6668 10.2307 10.6668 11.3333V31.3333C10.6668 31.7013 10.3682 32 10.0002 32Z" fill="#16365F"/>
<path d="M32.6668 34.6667H24.6668C24.2988 34.6667 24.0002 34.368 24.0002 34C24.0002 33.632 24.2988 33.3333 24.6668 33.3333H32.0002V29.3333H12.6668C11.5642 29.3333 10.6668 30.2307 10.6668 31.3333C10.6668 32.436 11.5642 33.3333 12.6668 33.3333H18.0002C18.3682 33.3333 18.6668 33.632 18.6668 34C18.6668 34.368 18.3682 34.6667 18.0002 34.6667H12.6668C10.8295 34.6667 9.3335 33.1707 9.3335 31.3333C9.3335 29.496 10.8295 28 12.6668 28H32.6668C33.0348 28 33.3335 28.2987 33.3335 28.6667V34C33.3335 34.368 33.0348 34.6667 32.6668 34.6667Z" fill="#16365F"/>
<path d="M24.6668 40.0003C24.5188 40.0003 24.3708 39.951 24.2495 39.855L21.3335 37.5203L18.4162 39.8537C18.2162 40.0137 17.9428 40.0443 17.7108 39.9337C17.4802 39.823 17.3335 39.5897 17.3335 39.3337V31.3337C17.3335 30.9657 17.6322 30.667 18.0002 30.667C18.3682 30.667 18.6668 30.9657 18.6668 31.3337V37.9457L20.9175 36.1457C21.1615 35.951 21.5068 35.951 21.7508 36.1457L24.0002 37.9457V31.3337C24.0002 30.9657 24.2988 30.667 24.6668 30.667C25.0348 30.667 25.3335 30.9657 25.3335 31.3337V39.3337C25.3335 39.5897 25.1868 39.823 24.9562 39.935C24.8642 39.979 24.7655 40.0003 24.6668 40.0003Z" fill="#16365F"/>
<path d="M27.3332 32.0003H15.3332C14.9652 32.0003 14.6665 31.7017 14.6665 31.3337C14.6665 30.9657 14.9652 30.667 15.3332 30.667H27.3332C27.7012 30.667 27.9998 30.9657 27.9998 31.3337C27.9998 31.7017 27.7012 32.0003 27.3332 32.0003Z" fill="#16365F"/>
<path d="M30.0002 25.3333C25.2215 25.3333 21.3335 21.4453 21.3335 16.6667C21.3335 11.888 25.2215 8 30.0002 8C34.7788 8 38.6668 11.888 38.6668 16.6667C38.6668 21.4453 34.7788 25.3333 30.0002 25.3333ZM30.0002 9.33333C25.9562 9.33333 22.6668 12.6227 22.6668 16.6667C22.6668 20.7107 25.9562 24 30.0002 24C34.0442 24 37.3335 20.7107 37.3335 16.6667C37.3335 12.6227 34.0442 9.33333 30.0002 9.33333Z" fill="#16365F"/>
<path d="M32.6668 20.6667C32.4962 20.6667 32.3255 20.6013 32.1948 20.472L29.5282 17.8053C29.4042 17.68 29.3335 17.5107 29.3335 17.3333V12.6667C29.3335 12.2987 29.6322 12 30.0002 12C30.3682 12 30.6668 12.2987 30.6668 12.6667V17.0573L33.1388 19.5293C33.3988 19.7893 33.3988 20.212 33.1388 20.472C33.0082 20.6013 32.8375 20.6667 32.6668 20.6667Z" fill="#16365F"/>
</svg>
