<svg width="48" height="48" viewBox="0 0 48 48" fill="none" xmlns="http://www.w3.org/2000/svg">
<path d="M36.831 42.444C27.6088 42.444 21.2754 47.2218 16.831 47.2218C12.3866 47.2218 3.05322 44.6662 3.05322 24.2218C3.05322 3.77734 15.6088 0.777344 20.4977 0.777344C43.3866 0.777343 53.1643 42.444 36.831 42.444Z" fill="#EFEFEF"/>
<path d="M35.3335 3.33301H36.6668V5.99968H35.3335V3.33301Z" fill="#FF5668"/>
<path d="M38.3335 7.33301H41.0001V8.66634H38.3335V7.33301Z" fill="#FF5668"/>
<path d="M17.9992 36.6663H11.3332C9.86041 36.6663 8.6665 35.4724 8.6665 33.9997V11.333V11.333C8.6665 12.8058 9.86041 13.9997 11.3332 13.9997H29.9998V33.9997C29.9998 35.4724 28.8059 36.6663 27.3332 36.6663H17.9992Z" fill="#F3F3F1"/>
<path d="M27.3332 14.0003H11.3332C9.8665 14.0003 8.6665 12.8003 8.6665 11.3337V11.3337C8.6665 9.86699 9.8665 8.66699 11.3332 8.66699H27.3332V14.0003Z" fill="#FFC405"/>
<path d="M29.9471 36.6613C30.2372 37.7012 29.3021 38.8454 27.8585 39.2169C26.4148 39.5884 25.0094 39.0466 24.7193 38.0067C24.4292 36.9668 25.3643 35.8226 26.8079 35.4511C28.2515 35.0796 29.6569 35.6214 29.9471 36.6613Z" fill="#FFC405"/>
<path d="M39.2806 35.3273C39.5707 36.3672 38.6356 37.5114 37.192 37.8829C35.7484 38.2544 34.3429 37.7126 34.0528 36.6727C33.7627 35.6328 34.6978 34.4886 36.1414 34.1171C37.585 33.7456 38.9905 34.2874 39.2806 35.3273Z" fill="#FFC405"/>
<path d="M27.386 38.006C27.13 37.0887 27.829 36.092 28.9878 35.6144C28.3939 35.3276 27.6105 35.2439 26.8078 35.4505C25.3642 35.822 24.4292 36.9662 24.7193 38.006C25.0093 39.0459 26.4148 39.5877 27.8585 39.2162C28.0286 39.1725 28.1902 39.1161 28.3451 39.0523C27.8708 38.8233 27.5147 38.4677 27.386 38.006Z" fill="#41D5E2"/>
<path d="M36.7195 36.673C36.4635 35.7557 37.1625 34.759 38.3213 34.2814C37.7274 33.9946 36.944 33.9109 36.1413 34.1175C34.6977 34.489 33.7627 35.6332 34.0528 36.673C34.3428 37.7129 35.7483 38.2547 37.1919 37.8832C37.3621 37.8394 37.5237 37.7831 37.6786 37.7193C37.2043 37.4903 36.8482 37.1347 36.7195 36.673Z" fill="#41D5E2"/>
<path d="M11.3332 33.9997V13.9997C9.86043 13.9997 8.6665 12.8057 8.6665 11.333V33.9997C8.6665 35.4724 9.86043 36.6663 11.3332 36.6663H13.9998C12.5271 36.6663 11.3332 35.4724 11.3332 33.9997Z" fill="#D5DBE1"/>
<path d="M11.3332 11.3337C11.3332 9.86703 12.5332 8.66699 13.9998 8.66699H11.3332C9.86654 8.66699 8.6665 9.86703 8.6665 11.3337C8.6665 12.8003 9.86654 14.0003 11.3332 14.0003H13.9998C12.5332 14.0003 11.3332 12.8003 11.3332 11.3337Z" fill="#41D5E2"/>
<path d="M26.9323 40.0027C25.5521 40.0033 24.3894 39.3074 24.0782 38.1843C23.9193 37.6179 24.0092 36.9988 24.3295 36.4428C24.7787 35.6648 25.6211 35.0678 26.642 34.8048C28.4597 34.3393 30.198 35.0717 30.5886 36.4825C30.7474 37.0496 30.6576 37.6681 30.3373 38.224C29.8881 39.002 29.0456 39.599 28.0248 39.8621C27.6537 39.9571 27.2865 40.0027 26.9323 40.0027ZM27.7253 35.9994C27.4831 35.9994 27.2292 36.0307 26.9753 36.0964C26.3086 36.2677 25.7513 36.6466 25.4844 37.1088C25.3855 37.2807 25.2839 37.545 25.362 37.8269C25.5508 38.5066 26.6185 38.8464 27.6915 38.5704C28.3581 38.3992 28.9154 38.0203 29.1823 37.558C29.2813 37.3862 29.3829 37.1218 29.3047 36.8399C29.3047 36.8399 29.3047 36.8399 29.3047 36.8393C29.1602 36.321 28.5053 35.9994 27.7253 35.9994Z" fill="#16365F"/>
<path d="M36.2658 38.6695C34.8856 38.6701 33.7229 37.9742 33.4117 36.8511C33.2528 36.2847 33.3427 35.6656 33.663 35.1096C34.1122 34.3316 34.9546 33.7346 35.9755 33.4716C37.7945 33.0067 39.5302 33.7379 39.9221 35.1493C40.0809 35.7164 39.9911 36.3349 39.6708 36.8909C39.2216 37.6688 38.3791 38.2659 37.3583 38.5289C36.9872 38.6239 36.62 38.6695 36.2658 38.6695ZM37.0588 34.6662C36.8166 34.6662 36.5627 34.6975 36.3088 34.7632C35.6421 34.9345 35.0848 35.3134 34.8179 35.7756C34.719 35.9475 34.6174 36.2118 34.6955 36.4937C34.8856 37.1734 35.952 37.5139 37.0249 37.2372C37.6916 37.066 38.2489 36.6871 38.5158 36.2248C38.6148 36.053 38.7164 35.7886 38.6382 35.5067C38.6382 35.5067 38.6382 35.5067 38.6382 35.5061C38.4937 34.9879 37.8387 34.6662 37.0588 34.6662Z" fill="#16365F"/>
<path d="M30.0002 37.6607C29.6317 37.6607 29.3335 37.3625 29.3335 36.994V27.3332C29.3335 27.0012 29.577 26.7199 29.9064 26.673L39.2398 25.3397C39.4325 25.3124 39.6252 25.3696 39.7697 25.496C39.9168 25.6229 40.0002 25.8065 40.0002 25.9999V35.6665C40.0002 36.035 39.702 36.3332 39.3335 36.3332C38.965 36.3332 38.6668 36.035 38.6668 35.6665V26.7687L30.6668 27.9113V36.994C30.6668 37.3625 30.3687 37.6607 30.0002 37.6607Z" fill="#16365F"/>
<path d="M30 24C29.6315 24 29.3333 23.7018 29.3333 23.3333V14.6667H11.3333C9.49479 14.6667 8 13.1712 8 11.3333C8 9.49544 9.49479 8 11.3333 8H27.3333C27.7018 8 28 8.29818 28 8.66667V13.3333H30C30.3685 13.3333 30.6667 13.6315 30.6667 14V23.3333C30.6667 23.7018 30.3685 24 30 24ZM11.3333 9.33333C10.2305 9.33333 9.33333 10.2305 9.33333 11.3333C9.33333 12.4362 10.2305 13.3333 11.3333 13.3333H26.6667V9.33333H11.3333Z" fill="#16365F"/>
<path d="M20.6667 37.3337H11.3333C9.49479 37.3337 8 35.8382 8 34.0003V11.3337C8 10.9652 8.29818 10.667 8.66667 10.667C9.03516 10.667 9.33333 10.9652 9.33333 11.3337V34.0003C9.33333 35.1032 10.2305 36.0003 11.3333 36.0003H20.6667C21.0352 36.0003 21.3333 36.2985 21.3333 36.667C21.3333 37.0355 21.0352 37.3337 20.6667 37.3337Z" fill="#16365F"/>
</svg>
