<svg width="48" height="48" viewBox="0 0 48 48" fill="none" xmlns="http://www.w3.org/2000/svg">
<path d="M17.8814 46.665C26.2787 42.853 34.0214 44.5863 38.068 42.7503C42.1147 40.913 49.5574 34.729 41.108 16.113C32.6587 -2.50304 19.9867 -0.047042 15.5347 1.97296C-5.30796 11.433 3.00804 53.4156 17.8814 46.665Z" fill="#EFEFEF"/>
<path d="M21 35H11.6667C10.2 35 9 33.8 9 32.3333V15.6667C9 14.2 10.2 13 11.6667 13H14.3333H24.3333H27C28.4667 13 29.6667 14.2 29.6667 15.6667V18.3333V35H21Z" fill="#F3F3F1"/>
<path d="M12 32.3333V15.6667C12 14.2 13.2 13 14.6667 13H14.3333H11.6667C10.2 13 9 14.2 9 15.6667V32.3333C9 33.8 10.2 35 11.6667 35H14.6667C13.2 35 12 33.8 12 32.3333Z" fill="#D5DBE1"/>
<path d="M24.3335 11.6667V14.3333C24.3335 15.0693 23.7362 15.6667 23.0002 15.6667H15.6668C14.9308 15.6667 14.3335 15.0693 14.3335 14.3333V11.6667H16.6668C16.6668 10.2 17.8668 9 19.3335 9C20.8002 9 22.0002 10.2 22.0002 11.6667H24.3335Z" fill="#FFC405"/>
<path d="M16.4722 13.472H17.3388C17.8922 13.472 18.4335 13.156 18.6082 12.632C18.9628 11.5733 19.3322 10.8053 21.1388 10.8053C21.3868 10.8053 21.6335 10.8507 21.8775 10.9147C21.5495 9.81333 20.5375 9 19.3335 9C17.8668 9 16.6668 10.2 16.6668 11.6667H14.3335V14.3333C14.3335 15.0693 14.9308 15.6667 15.6668 15.6667H16.4722V13.472Z" fill="#41D5E2"/>
<path d="M37.6667 38.9997H26.3333C25.5973 38.9997 25 38.4024 25 37.6664V23.6663C25 22.9303 25.5973 22.333 26.3333 22.333H37.6667C38.4027 22.333 39 22.9303 39 23.6663V37.6664C39 38.4024 38.4027 38.9997 37.6667 38.9997Z" fill="#FFC405"/>
<path d="M28 37.6664V23.6663C28 22.9303 28.5973 22.333 29.3333 22.333H26.3333C25.5973 22.333 25 22.9303 25 23.6663V37.6664C25 38.4024 25.5973 38.9997 26.3333 38.9997H29.3333C28.5973 38.9997 28 38.4024 28 37.6664Z" fill="#41D5E2"/>
<path d="M34.6548 6.1543L35.5976 5.21149L37.4832 7.09711L36.5404 8.03992L34.6548 6.1543Z" fill="#FF5668"/>
<path d="M40.0752 11.5752L41.018 10.6324L42.9036 12.518L41.9608 13.4608L40.0752 11.5752Z" fill="#FF5668"/>
<path d="M34.418 12.5186L36.3036 10.6329L37.2464 11.5757L35.3608 13.4614L34.418 12.5186Z" fill="#FF5668"/>
<path d="M39.8394 7.09766L41.725 5.21204L42.6678 6.15485L40.7822 8.04046L39.8394 7.09766Z" fill="#FF5668"/>
<path d="M21 36H11.6667C9.644 36 8 34.356 8 32.3333V15.6667C8 13.644 9.644 12 11.6667 12H14.3333V14H11.6667C10.748 14 10 14.748 10 15.6667V32.3333C10 33.252 10.748 34 11.6667 34H21V36Z" fill="#16365F"/>
<path d="M30.6668 18.3333H28.6668V15.6667C28.6668 14.748 27.9188 14 27.0002 14H24.3335V12H27.0002C29.0228 12 30.6668 13.644 30.6668 15.6667V18.3333Z" fill="#16365F"/>
<path d="M23.0002 16.6667H15.6668C14.3802 16.6667 13.3335 15.62 13.3335 14.3333V11.6667C13.3335 11.1147 13.7815 10.6667 14.3335 10.6667H15.8055C16.2415 9.12933 17.6588 8 19.3335 8C21.0082 8 22.4255 9.12933 22.8615 10.6667H24.3335C24.8855 10.6667 25.3335 11.1147 25.3335 11.6667V14.3333C25.3335 15.62 24.2868 16.6667 23.0002 16.6667ZM15.3335 12.6667V14.3333C15.3335 14.5173 15.4828 14.6667 15.6668 14.6667H23.0002C23.1842 14.6667 23.3335 14.5173 23.3335 14.3333V12.6667H22.0002C21.4482 12.6667 21.0002 12.2187 21.0002 11.6667C21.0002 10.748 20.2522 10 19.3335 10C18.4148 10 17.6668 10.748 17.6668 11.6667C17.6668 12.2187 17.2188 12.6667 16.6668 12.6667H15.3335Z" fill="#16365F"/>
<path d="M37.6667 39.9997H26.3333C25.0467 39.9997 24 38.953 24 37.6663V23.6663C24 22.3797 25.0467 21.333 26.3333 21.333H37.6667C38.9533 21.333 40 22.3797 40 23.6663V37.6663C40 38.953 38.9533 39.9997 37.6667 39.9997ZM26.3333 23.333C26.1493 23.333 26 23.4823 26 23.6663V37.6663C26 37.8503 26.1493 37.9997 26.3333 37.9997H37.6667C37.8507 37.9997 38 37.8503 38 37.6663V23.6663C38 23.4823 37.8507 23.333 37.6667 23.333H26.3333Z" fill="#16365F"/>
<path d="M28.8335 28.667H34.8335V30.667H28.8335V28.667Z" fill="#16365F"/>
<path d="M28.8335 32.667H34.8335V34.667H28.8335V32.667Z" fill="#16365F"/>
</svg>
