<svg width="48" height="48" viewBox="0 0 48 48" fill="none" xmlns="http://www.w3.org/2000/svg">
<path d="M5.55614 11.1697C5.55614 20.3923 0.778809 26.7257 0.778809 31.1697C0.778809 35.6137 3.33348 44.947 23.7775 44.947C44.2215 44.947 47.2215 32.391 47.2215 27.503C47.2228 4.61366 5.55614 -5.16368 5.55614 11.1697Z" fill="#EFEFEF"/>
<path d="M39.8335 1.33301H41.1668V3.99968H39.8335V1.33301Z" fill="#FF5668"/>
<path d="M42.8335 5.33301H45.5001V6.66634H42.8335V5.33301Z" fill="#FF5668"/>
<path d="M39 11.6667V29.6667C39 31.1333 37.8 32.3333 36.3333 32.3333H21L14.3333 39V32.3333H11.6667C10.2 32.3333 9 31.1333 9 29.6667V11.6667C9 10.2 10.2 9 11.6667 9H36.3333C37.8 9 39 10.2 39 11.6667Z" fill="#F3F3F1"/>
<path d="M29.6667 26.9997H18.3333C17.5973 26.9997 17 26.4023 17 25.6663V19.6663C17 18.9303 17.5973 18.333 18.3333 18.333H29.6667C30.4027 18.333 31 18.9303 31 19.6663V25.6663C31 26.4023 30.4027 26.9997 29.6667 26.9997Z" fill="#FFC405"/>
<path d="M17.3333 36V32.3333H14.6667C13.2 32.3333 12 31.1333 12 29.6667V11.6667C12 10.2 13.2 9 14.6667 9H11.6667C10.2 9 9 10.2 9 11.6667V29.6667C9 31.1333 10.2 32.3333 11.6667 32.3333H14.3333V39L17.3333 36Z" fill="#D5DBE1"/>
<path d="M20 25.6663V19.6663C20 18.9303 20.5973 18.333 21.3333 18.333H18.3333C17.5973 18.333 17 18.9303 17 19.6663V25.6663C17 26.4023 17.5973 26.9997 18.3333 26.9997H21.3333C20.5973 26.9997 20 26.4023 20 25.6663Z" fill="#41D5E2"/>
<path d="M14.3333 40C14.204 40 14.0747 39.9747 13.9507 39.924C13.5773 39.7693 13.3333 39.4053 13.3333 39V33.3333H11.6667C9.644 33.3333 8 31.6893 8 29.6667V11.6667C8 9.644 9.644 8 11.6667 8H36.3333C38.356 8 40 9.644 40 11.6667V29.6667C40 31.6893 38.356 33.3333 36.3333 33.3333H21.4147L15.0413 39.7067C14.8493 39.8987 14.5933 40 14.3333 40ZM11.6667 10C10.748 10 10 10.748 10 11.6667V29.6667C10 30.5853 10.748 31.3333 11.6667 31.3333H14.3333C14.8853 31.3333 15.3333 31.7813 15.3333 32.3333V36.5853L20.2933 31.6253C20.4813 31.4373 20.7347 31.332 21 31.332H36.3333C37.252 31.332 38 30.584 38 29.6653V11.6667C38 10.748 37.252 10 36.3333 10H11.6667Z" fill="#16365F"/>
<path d="M29.6667 27.9997H18.3333C17.0467 27.9997 16 26.953 16 25.6663V19.6663C16 18.3797 17.0467 17.333 18.3333 17.333H29.6667C30.9533 17.333 32 18.3797 32 19.6663V25.6663C32 26.953 30.9533 27.9997 29.6667 27.9997ZM18.3333 19.333C18.1493 19.333 18 19.4823 18 19.6663V25.6663C18 25.8503 18.1493 25.9997 18.3333 25.9997H29.6667C29.8507 25.9997 30 25.8503 30 25.6663V19.6663C30 19.4823 29.8507 19.333 29.6667 19.333H18.3333Z" fill="#16365F"/>
<path d="M28 18.3333H26V16.3333C26 16.1493 25.8507 16 25.6667 16H22.3333C22.1493 16 22 16.1493 22 16.3333V18.3333H20V16.3333C20 15.0467 21.0467 14 22.3333 14H25.6667C26.9533 14 28 15.0467 28 16.3333V18.3333Z" fill="#16365F"/>
<path d="M17 21.333H31V23.333H17V21.333Z" fill="#16365F"/>
<path d="M23 20H25V24.6667H23V20Z" fill="#16365F"/>
</svg>
