<svg width="205" height="202" viewBox="0 0 205 202" fill="none" xmlns="http://www.w3.org/2000/svg">
<path d="M194.544 136.589C174.202 184.136 120.506 204.558 78.435 201.076C66.9482 200.126 43.8351 198.213 25.7891 181.147C-8.86811 148.373 -3.53042 79.8661 29.6461 39.5329C33.919 34.3389 63.4918 -0.46063 109.576 0.00462238C143.317 0.345759 166.999 19.4051 169.879 21.78C173.517 24.7799 181.54 31.9074 188.771 43.2157C205.761 69.7859 207.255 106.878 194.544 136.589Z" fill="#F7F8FB"/>
<g opacity="0.3">
<path opacity="0.3" d="M63.1371 43.1387C63.5313 43.2316 63.7998 43.6098 63.7468 44.0198C63.6321 44.9177 63.4761 45.8235 63.2838 46.7126C63.1901 47.1452 62.7641 47.4203 62.3315 47.3267C62.3264 47.3252 62.3213 47.3245 62.3162 47.3231C61.8924 47.2229 61.6253 46.8019 61.7174 46.3744C61.9003 45.5296 62.0477 44.6687 62.1573 43.8159C62.2132 43.3768 62.6145 43.0668 63.0537 43.1227C63.082 43.1271 63.1103 43.1322 63.1371 43.1387ZM61.483 49.9201C61.5135 49.9273 61.544 49.936 61.5744 49.9476C61.9903 50.0993 62.2045 50.5588 62.0528 50.9747C61.7414 51.8282 61.3901 52.6775 61.0098 53.4984C60.8232 53.8997 60.3493 54.0739 59.9457 53.8881C59.5443 53.7016 59.3701 53.2255 59.5567 52.8241C59.9188 52.0438 60.252 51.2374 60.5481 50.426C60.6875 50.0405 61.0932 49.8286 61.483 49.9201ZM58.3772 56.1687C58.4643 56.189 58.5492 56.2245 58.6283 56.2761C59 56.5163 59.1067 57.0128 58.8657 57.3844C58.3736 58.1458 57.8415 58.8956 57.2848 59.6127C57.0134 59.9618 56.5104 60.025 56.1606 59.7542C55.8114 59.4828 55.7476 58.9798 56.019 58.6299C56.5474 57.9491 57.0526 57.2371 57.52 56.5141C57.7087 56.2216 58.0564 56.0932 58.3772 56.1687ZM53.9504 61.5666C54.0941 61.6007 54.2299 61.674 54.3402 61.788C54.6487 62.1052 54.6414 62.6125 54.3242 62.921C53.6732 63.5539 52.9873 64.1658 52.2854 64.7399C51.9428 65.0193 51.4384 64.9693 51.1582 64.6274C50.878 64.2848 50.9288 63.7804 51.2707 63.5002C51.9377 62.9544 52.5895 62.3737 53.2079 61.772C53.4111 61.5739 53.6935 61.5064 53.9504 61.5666ZM48.432 65.8424C48.6331 65.8896 48.816 66.0144 48.9321 66.2053C49.1622 66.5835 49.0432 67.0763 48.665 67.3064C47.892 67.7775 47.0878 68.2224 46.2749 68.6281C45.8793 68.8263 45.3981 68.6651 45.1999 68.2696C45.0025 67.874 45.1629 67.3928 45.5592 67.1946C46.3322 66.8092 47.0965 66.3861 47.831 65.9382C48.0183 65.8243 48.2339 65.796 48.432 65.8424ZM42.105 68.7907C42.3656 68.8524 42.5892 69.0426 42.6813 69.3155C42.8221 69.735 42.5964 70.1894 42.1776 70.3302C41.3183 70.6191 40.4349 70.8753 39.5538 71.0901C39.1234 71.1954 38.6901 70.9319 38.5855 70.5015C38.4803 70.0718 38.7438 69.6385 39.1742 69.5332C40.0118 69.3285 40.8501 69.0861 41.6666 68.811C41.8133 68.7617 41.965 68.7573 42.105 68.7907ZM13.0926 63.9008C13.2007 63.9263 13.3045 63.9749 13.3981 64.0467C14.0789 64.5737 14.7924 65.0774 15.5175 65.5448C15.8891 65.7844 15.9966 66.2801 15.757 66.6517C15.5175 67.0241 15.0218 67.1315 14.6494 66.892C13.8852 66.3999 13.1339 65.8693 12.4175 65.3147C12.0677 65.044 12.0031 64.541 12.2738 64.1905C12.4727 63.9342 12.7964 63.8312 13.0926 63.9008ZM35.2867 70.262C35.6104 70.3382 35.8644 70.6125 35.9 70.9616C35.9443 71.4022 35.6235 71.7949 35.1829 71.8392C34.2807 71.9299 33.3633 71.9829 32.456 71.9952C32.014 71.9996 31.6496 71.6483 31.6431 71.2055C31.6365 70.7628 31.99 70.3991 32.4328 70.3926C33.2936 70.3803 34.1653 70.3302 35.0218 70.2445C35.1139 70.2358 35.2025 70.2424 35.2867 70.262ZM19.0595 67.5213C19.1111 67.5336 19.1619 67.5503 19.2119 67.5735C19.9937 67.935 20.8022 68.2667 21.6137 68.5606C22.0296 68.7116 22.2444 69.171 22.0942 69.5869C21.9432 70.0028 21.4838 70.2199 21.0679 70.0674C20.2143 69.7575 19.3636 69.4084 18.5413 69.0288C18.1392 68.843 17.9643 68.3668 18.1493 67.9655C18.3112 67.6142 18.6966 67.4356 19.0595 67.5213ZM28.3108 70.1741C28.7042 70.267 28.9728 70.6437 28.9205 71.0538C28.8654 71.493 28.464 71.8036 28.0249 71.7484C27.1263 71.6352 26.2197 71.4813 25.3321 71.2912C25.3263 71.2904 25.3212 71.289 25.3154 71.2875C24.8922 71.1874 24.6251 70.7671 24.7166 70.3403C24.8095 69.9078 25.2348 69.6319 25.6681 69.7248C26.5115 69.9056 27.3723 70.0515 28.2266 70.1589C28.2549 70.1625 28.2832 70.1676 28.3108 70.1741Z" fill="#91B3FA"/>
<path opacity="0.3" d="M8.97208 60.0698C9.12595 60.1061 9.27039 60.1881 9.38362 60.3144C9.65943 60.6221 9.94613 60.9284 10.2365 61.2267C10.5449 61.5439 10.5384 62.0513 10.2212 62.3597C9.90403 62.6682 9.39669 62.6624 9.08821 62.3445C8.78337 62.0309 8.48143 61.7087 8.1911 61.385C7.89569 61.0554 7.92327 60.5488 8.25207 60.2534C8.4553 60.0712 8.7253 60.0117 8.97208 60.0698Z" fill="#91B3FA"/>
</g>
<g opacity="0.3">
<path opacity="0.3" d="M1.05288 36.9622C1.42958 37.0507 1.69596 37.402 1.66692 37.8005C1.63644 38.2127 1.61467 38.6323 1.6016 39.0474C1.58781 39.4895 1.21764 39.8371 0.775617 39.8226C0.331415 39.8081 -0.0140752 39.4387 0.000441169 38.9966C0.0142318 38.5597 0.037458 38.1177 0.0693941 37.6836C0.10133 37.2423 0.485289 36.9106 0.927314 36.9426C0.970137 36.9462 1.01223 36.9527 1.05288 36.9622Z" fill="#91B3FA"/>
<path opacity="0.3" d="M39.3173 8.83532C39.6759 8.92024 40.0352 9.01097 40.3937 9.10896C40.8205 9.22509 41.0731 9.66566 40.957 10.0924C40.8408 10.5192 40.3981 10.7725 39.9735 10.6557C39.146 10.4307 38.3114 10.2398 37.4825 10.0866C37.047 10.0054 36.7596 9.588 36.8401 9.15323C36.9207 8.71774 37.3388 8.43031 37.7735 8.51088C38.286 8.60524 38.8056 8.71484 39.3173 8.83532ZM44.3901 10.4953C44.4337 10.5054 44.4772 10.52 44.52 10.5381C45.3431 10.8872 46.1604 11.2748 46.9493 11.6907C47.3406 11.8968 47.4908 12.3817 47.2847 12.7729C47.0785 13.1641 46.5922 13.3151 46.2025 13.1082C45.4534 12.7134 44.6768 12.3454 43.8944 12.013C43.4872 11.8402 43.297 11.3699 43.4698 10.9627C43.6244 10.5976 44.017 10.4075 44.3901 10.4953ZM33.5848 8.03329C33.9528 8.12039 34.2185 8.45862 34.2003 8.84911C34.18 9.29114 33.8055 9.633 33.3634 9.61268C32.5179 9.57348 31.6592 9.57058 30.8107 9.60397C30.3687 9.62066 29.9964 9.27662 29.9789 8.8346C29.9615 8.39257 30.3063 8.02022 30.7483 8.00281C31.6418 7.96797 32.5462 7.97159 33.4367 8.01224C33.4868 8.01514 33.5369 8.0224 33.5848 8.03329ZM50.3817 13.858C50.4805 13.8812 50.577 13.9241 50.6648 13.9872C51.3906 14.5084 52.1027 15.0665 52.7813 15.6464C53.1174 15.9339 53.1573 16.4398 52.8699 16.7758C52.5824 17.1126 52.0765 17.1525 51.7405 16.8644C51.096 16.3135 50.4202 15.7836 49.7307 15.2893C49.3714 15.0317 49.2887 14.5309 49.5471 14.1716C49.7408 13.8994 50.0747 13.7854 50.3817 13.858ZM26.7345 8.48112C27.0357 8.55225 27.2818 8.79613 27.3399 9.12057C27.4175 9.55607 27.1272 9.97269 26.691 10.0496C25.8577 10.1977 25.0194 10.3835 24.1992 10.602C23.7717 10.7159 23.3326 10.4619 23.2187 10.0337C23.1047 9.60615 23.3595 9.16702 23.787 9.0538C24.6507 8.82371 25.5333 8.62774 26.4108 8.47169C26.5211 8.45209 26.6315 8.45644 26.7345 8.48112ZM20.1484 10.4205C20.3894 10.4771 20.6006 10.6448 20.7037 10.8909C20.8743 11.2988 20.6819 11.7684 20.274 11.9397C19.4916 12.2677 18.7128 12.6321 17.9615 13.0233C17.5696 13.228 17.0855 13.0756 16.8808 12.6829C16.6768 12.2902 16.8293 11.8068 17.2219 11.6022C18.0131 11.1906 18.8318 10.8067 19.6556 10.4619C19.8175 10.3937 19.9895 10.3828 20.1484 10.4205ZM14.1415 13.7499C14.3252 13.7934 14.4936 13.9008 14.6111 14.0671C14.8666 14.4278 14.781 14.9279 14.4203 15.1841C13.7271 15.6747 13.047 16.1995 12.3988 16.7453C12.0606 17.0299 11.5554 16.987 11.2702 16.6481C10.9857 16.3091 11.0292 15.8039 11.3675 15.5194C12.0497 14.946 12.7654 14.3929 13.4948 13.8762C13.6894 13.7375 13.9252 13.6991 14.1415 13.7499ZM9.00419 18.3095C9.13121 18.3392 9.25242 18.4009 9.35621 18.4946C9.68501 18.7914 9.71041 19.2973 9.41355 19.6261C8.84451 20.2561 8.29651 20.9174 7.78336 21.5924C7.51553 21.9444 7.01254 22.0134 6.66052 21.7455C6.30777 21.4777 6.23954 20.9747 6.50737 20.6227C7.04738 19.9121 7.62513 19.2153 8.22393 18.5526C8.42789 18.3276 8.7291 18.2449 9.00419 18.3095ZM4.99185 23.8882C5.06298 23.9049 5.13339 23.9324 5.20089 23.9702C5.5863 24.1872 5.72348 24.6757 5.50646 25.0611C5.09129 25.7992 4.70225 26.565 4.35023 27.3373C4.1666 27.7401 3.69046 27.9165 3.28908 27.7336C2.88625 27.5499 2.70915 27.0745 2.89278 26.6717C3.26368 25.8588 3.67304 25.0531 4.10998 24.2757C4.28853 23.9571 4.6529 23.8083 4.99185 23.8882ZM2.30487 30.2079C2.32084 30.2115 2.3368 30.2159 2.35277 30.221C2.77665 30.3487 3.01617 30.7958 2.88843 31.219C2.70842 31.817 2.54439 32.4275 2.40068 33.0342C2.34914 33.2542 2.29979 33.4741 2.25261 33.6933C2.16043 34.1259 1.73437 34.4024 1.30178 34.3095C0.861937 34.2246 0.593384 33.792 0.685563 33.3587C0.734919 33.1272 0.786452 32.8963 0.840889 32.6655C0.991859 32.0275 1.16388 31.3845 1.35404 30.7559C1.47671 30.3487 1.89551 30.1114 2.30487 30.2079Z" fill="#91B3FA"/>
<path opacity="0.3" d="M55.4967 18.4728C55.6521 18.5091 55.7972 18.5926 55.9112 18.7204C56.1993 19.0448 56.486 19.3808 56.7633 19.7205C57.0435 20.0631 56.9927 20.5683 56.6501 20.8477C56.3075 21.1279 55.803 21.0771 55.5229 20.7345C55.2594 20.4122 54.9872 20.0922 54.7136 19.7844C54.4196 19.4542 54.4494 18.9475 54.7804 18.6536C54.9829 18.4728 55.2514 18.4148 55.4967 18.4728Z" fill="#91B3FA"/>
</g>
<path d="M52.3087 27.2687C52.239 27.125 52.0851 27.0416 51.9269 27.0604L47.4021 27.6084C46.0593 25.9572 44.4437 24.5077 42.5914 23.3391L42.595 18.7846C42.595 18.6249 42.4941 18.4827 42.3432 18.4304L37.176 16.6441C37.0251 16.5919 36.8574 16.6412 36.7587 16.7668L33.9483 20.3516C31.7694 20.1274 29.6036 20.2689 27.5277 20.7392L24.3072 17.5137C24.194 17.4005 24.022 17.3714 23.8783 17.4418L18.9616 19.8327C18.8179 19.9024 18.7344 20.0562 18.7533 20.2145L19.3013 24.7392C17.65 26.082 16.2006 27.6977 15.032 29.5507L10.4775 29.5471C10.3178 29.5471 10.1755 29.648 10.1233 29.799L8.33702 34.9661C8.28476 35.1171 8.33411 35.2847 8.45968 35.3834L12.0445 38.1938C11.8202 40.3727 11.9618 42.5386 12.4321 44.6144L9.20655 47.8349C9.09332 47.9474 9.06429 48.1202 9.13469 48.2639L11.5255 53.1806C11.5952 53.3243 11.7491 53.4078 11.9073 53.3889L16.4321 52.8409C17.7749 54.4922 19.3905 55.9416 21.2428 57.1102L21.2392 61.6655C21.2392 61.8251 21.3401 61.9674 21.4911 62.0197L26.6582 63.8059C26.8091 63.8582 26.9768 63.8088 27.0755 63.6833L29.8859 60.0984C32.0648 60.3227 34.2307 60.1812 36.3065 59.7108L39.527 62.9364C39.6395 63.0496 39.8122 63.0786 39.9559 63.0082L44.8726 60.6174C45.0163 60.5477 45.0998 60.3946 45.0809 60.2356L44.5329 55.7108C46.1842 54.368 47.6337 52.7524 48.8022 50.9001L53.3567 50.9037C53.5164 50.9037 53.6587 50.8028 53.7109 50.6518L55.4972 45.4847C55.5494 45.3337 55.5001 45.1661 55.3745 45.0674L51.7897 42.257C52.014 40.0781 51.8724 37.9122 51.4021 35.8363L54.6269 32.6159C54.7402 32.5026 54.7692 32.3306 54.6988 32.1869L52.3087 27.2687Z" fill="#91B3FA"/>
<path d="M33.1844 34.8772C35.7915 35.4927 37.6286 37.9475 37.3934 40.694C37.1343 43.7134 34.4676 45.9584 31.4489 45.7C29.9864 45.5751 28.6603 44.8871 27.7146 43.7649C26.7689 42.6421 26.3174 41.2188 26.443 39.7562C26.7021 36.7368 29.3687 34.4918 32.3874 34.7502C32.6596 34.7735 32.926 34.8163 33.1844 34.8772ZM30.9416 44.3246C31.1427 44.3717 31.3488 44.4051 31.5585 44.4233C33.8732 44.6214 35.9178 42.8998 36.1167 40.5851C36.3148 38.2705 34.5939 36.2251 32.2786 36.027C29.9639 35.8281 27.9193 37.5505 27.7204 39.8651C27.6246 40.9865 27.9708 42.0781 28.6952 42.939C29.2845 43.6387 30.067 44.1177 30.9416 44.3246Z" fill="#F7F8FB"/>
<path d="M34.8982 27.1262C35.346 27.2322 35.791 27.3607 36.2315 27.5131C36.3702 27.561 36.5081 27.6111 36.6453 27.6633C37.3217 27.9217 37.9764 28.2338 38.5992 28.5938C38.6079 28.5989 38.6159 28.604 38.6246 28.6084C38.6485 28.6221 38.6725 28.6367 38.6964 28.6505C38.7429 28.678 38.7893 28.7056 38.8358 28.7339C38.9577 28.808 39.0129 28.9495 38.9817 29.0816C38.9744 29.1135 38.9614 29.1447 38.9432 29.1745C38.8518 29.3262 38.6543 29.3734 38.5034 29.2819C37.7246 28.8094 36.8899 28.4182 36.0218 28.1184C31.7111 26.6276 27.1385 27.5704 23.8055 30.2139C21.951 31.6844 20.4805 33.6811 19.6524 36.0785C19.5072 36.4988 19.3838 36.9234 19.2829 37.3509C18.605 40.2252 18.9331 43.2206 20.2417 45.912C21.7449 49.004 24.3629 51.3252 27.6117 52.4487C34.3226 54.7677 41.6629 51.196 43.9819 44.4886C44.1248 44.0749 44.246 43.6561 44.3462 43.233C44.7788 41.3995 44.8057 39.4913 44.4173 37.6463C44.4072 37.5984 44.4086 37.5512 44.4188 37.5069C44.4464 37.3901 44.5393 37.2935 44.6648 37.2667C44.8383 37.2311 45.0082 37.3407 45.0444 37.5142C45.4516 39.4514 45.4241 41.4547 44.9697 43.3796C44.8652 43.8238 44.7374 44.2636 44.5879 44.6977C42.1535 51.7403 34.4424 55.4877 27.4027 53.0541C23.9913 51.8753 21.2434 49.438 19.6654 46.1921C18.2915 43.3665 17.9467 40.2222 18.6587 37.2043C18.7647 36.7557 18.8939 36.3101 19.0463 35.8688C20.2258 32.4574 22.6623 29.7094 25.9082 28.1315C28.7353 26.7575 31.8803 26.4135 34.8982 27.1262Z" fill="#F7F8FB"/>
<g opacity="0.3">
<path opacity="0.3" d="M95.7391 25.1718C95.9474 25.2212 96.1071 25.4019 96.1194 25.6269C96.1419 26.0464 96.1521 26.4725 96.1492 26.8927C96.1477 27.1656 95.9249 27.3863 95.6513 27.3841C95.3776 27.3834 95.1577 27.1591 95.1599 26.8862C95.1621 26.4856 95.1526 26.0798 95.1316 25.6792C95.1171 25.4063 95.3261 25.1733 95.599 25.1587C95.6476 25.1566 95.6941 25.1609 95.7391 25.1718Z" fill="#91B3FA"/>
<path opacity="0.3" d="M95.5935 28.9757C95.8373 29.033 96.0035 29.2675 95.9702 29.5215C95.8765 30.2386 95.7444 30.9594 95.5782 31.6627C95.5434 31.8108 95.5064 31.9588 95.4679 32.1076C95.3989 32.3726 95.1173 32.5177 94.8647 32.4633C94.5998 32.3951 94.4409 32.125 94.5091 31.8601C94.5461 31.7186 94.5809 31.5763 94.6143 31.4348C94.7726 30.7634 94.8988 30.076 94.9881 29.3923C95.0237 29.1209 95.2719 28.9307 95.5427 28.9655C95.5601 28.9684 95.5768 28.9713 95.5935 28.9757ZM94.3073 33.9498C94.3298 33.9548 94.353 33.9621 94.3755 33.9708C94.6303 34.071 94.7551 34.3584 94.655 34.6124C94.3342 35.4283 93.9596 36.2317 93.5423 36.9997C93.4116 37.2399 93.1104 37.3277 92.8709 37.1985C92.6307 37.0679 92.5421 36.7681 92.672 36.5279C93.0705 35.7948 93.4269 35.0291 93.7332 34.2503C93.8246 34.0187 94.0714 33.8946 94.3073 33.9498ZM91.8533 38.4644C91.9143 38.4789 91.9738 38.505 92.0282 38.5435C92.2503 38.7024 92.3011 39.0124 92.1415 39.2345C91.6312 39.9458 91.0702 40.6331 90.475 41.2769C90.2892 41.478 89.9771 41.4903 89.7753 41.3038C89.575 41.1187 89.5626 40.8052 89.7477 40.6048C90.3153 39.9908 90.8502 39.3361 91.3365 38.6574C91.4577 38.4898 91.6639 38.4194 91.8533 38.4644ZM88.3643 42.2372C88.4637 42.2604 88.5574 42.3156 88.6285 42.3991C88.8049 42.6081 88.778 42.9202 88.5697 43.0966C87.899 43.662 87.1877 44.1911 86.4547 44.6687C86.2253 44.8175 85.919 44.7522 85.7702 44.5243C85.6207 44.2956 85.6853 43.9886 85.9146 43.8391C86.6129 43.384 87.2923 42.8796 87.931 42.3403C88.0551 42.235 88.2169 42.2024 88.3643 42.2372ZM84.0595 45.0432C84.1988 45.0759 84.3229 45.1688 84.3904 45.3074C84.5102 45.5528 84.4086 45.8489 84.1632 45.9694C83.3765 46.3541 82.5577 46.6945 81.7318 46.9797C81.4734 47.0697 81.1917 46.9318 81.1025 46.6734C81.0132 46.415 81.1504 46.1334 81.4088 46.0441C82.1977 45.7712 82.978 45.4475 83.7292 45.0795C83.8352 45.028 83.952 45.0178 84.0595 45.0432ZM79.2052 46.7199C79.3852 46.7627 79.5347 46.9057 79.5761 47.0988C79.6327 47.3659 79.4621 47.6286 79.195 47.6852C78.3378 47.8674 77.4617 47.9973 76.5908 48.0721C76.3179 48.0946 76.0791 47.8928 76.0558 47.6206C76.0326 47.3484 76.2344 47.1089 76.5066 47.0857C77.3376 47.0146 78.1723 46.8904 78.9896 46.717C79.0629 46.7017 79.1362 46.7032 79.2052 46.7199ZM74.0896 47.1583C74.3153 47.2113 74.4794 47.4188 74.4699 47.6584C74.459 47.9313 74.2297 48.1447 73.956 48.1338C73.0836 48.1004 72.2017 48.0111 71.3351 47.8696C71.0658 47.821 70.8822 47.5705 70.9265 47.3013C70.9707 47.0313 71.2248 46.8491 71.4948 46.8926C72.3215 47.0284 73.1627 47.1133 73.9945 47.1452C74.0272 47.1459 74.0591 47.151 74.0896 47.1583ZM66.5977 45.4541C66.6252 45.4606 66.6536 45.47 66.6804 45.4816C67.3431 45.7676 68.0326 46.0224 68.7301 46.2387C68.8354 46.2721 68.9399 46.3033 69.0437 46.3337C69.3064 46.4107 69.4567 46.685 69.3805 46.9478C69.3043 47.2105 69.0255 47.3688 68.7671 47.2846C68.6561 47.2519 68.5458 47.2185 68.4347 47.1837C67.7053 46.9572 66.9824 46.6901 66.2877 46.3904C66.0366 46.2822 65.9212 45.9912 66.0293 45.74C66.1266 45.5157 66.3683 45.3996 66.5977 45.4541Z" fill="#91B3FA"/>
</g>
<g opacity="0.3">
<path opacity="0.3" d="M79.3983 5.90609C79.6611 5.96851 79.8266 6.23053 79.7678 6.49546C79.7082 6.76183 79.444 6.93022 79.1777 6.87071C78.3742 6.69215 77.5533 6.56078 76.7375 6.48094C76.4675 6.45191 76.2664 6.21238 76.2933 5.9402C76.3201 5.66802 76.5625 5.46914 76.834 5.496C77.6897 5.58019 78.5498 5.71737 79.3918 5.90464C79.394 5.90536 79.3961 5.90536 79.3983 5.90609ZM81.832 6.6036C81.8494 6.60796 81.8661 6.61304 81.8835 6.61885C82.6964 6.90482 83.4992 7.24378 84.2715 7.62484C84.5161 7.74605 84.617 8.04291 84.4958 8.28751C84.3745 8.53284 84.077 8.63228 83.8331 8.51252C83.0964 8.14815 82.3299 7.82516 81.5547 7.55225C81.2971 7.46153 81.1621 7.17918 81.2528 6.92151C81.337 6.67981 81.5896 6.54626 81.832 6.6036ZM74.3691 5.41398C74.5825 5.46406 74.7444 5.6535 74.7502 5.88359C74.7567 6.1565 74.5411 6.38368 74.2682 6.39021C73.4451 6.41126 72.617 6.48239 71.8055 6.60215C71.5348 6.64062 71.2836 6.45481 71.2437 6.1848C71.2038 5.9148 71.3911 5.66294 71.6611 5.62302C72.5117 5.49745 73.3798 5.42342 74.2428 5.40164C74.2864 5.40019 74.3292 5.40454 74.3691 5.41398ZM86.3633 8.84639C86.4177 8.85946 86.4714 8.88196 86.5215 8.91462C87.2423 9.38786 87.9405 9.91118 88.5966 10.4686C88.805 10.6457 88.8304 10.9578 88.6533 11.1661C88.4769 11.3737 88.164 11.3991 87.9557 11.2227C87.3294 10.6914 86.6638 10.1928 85.9772 9.74133C85.7493 9.59109 85.6854 9.28407 85.8356 9.05616C85.9532 8.8776 86.1666 8.79994 86.3633 8.84639ZM69.3711 6.15214C69.5417 6.19206 69.6854 6.32198 69.7347 6.50271C69.8073 6.76691 69.652 7.0391 69.3885 7.11095C68.5967 7.32797 67.8099 7.59653 67.0499 7.90863C66.7966 8.01242 66.5077 7.89121 66.404 7.63863C66.3002 7.38604 66.4214 7.09644 66.674 6.99264C67.4709 6.66602 68.2962 6.3844 69.1265 6.1565C69.2092 6.134 69.2934 6.134 69.3711 6.15214ZM64.6954 8.06759C64.826 8.09807 64.9436 8.18154 65.014 8.30783C65.1476 8.54663 65.0619 8.84785 64.8238 8.9814C64.1053 9.3835 63.4049 9.83206 62.7422 10.3155C62.5208 10.4766 62.2116 10.428 62.0505 10.2073C61.8893 9.98666 61.938 9.67746 62.1586 9.51633C62.8532 9.00971 63.587 8.53865 64.3404 8.11767C64.4529 8.05452 64.5792 8.04073 64.6954 8.06759ZM60.6134 11.0485C60.7048 11.0703 60.7919 11.1182 60.8609 11.1923C61.0474 11.3919 61.0372 11.7054 60.8369 11.8919C60.2352 12.4537 59.6633 13.0576 59.1363 13.6862C58.9607 13.8952 58.6486 13.9228 58.4395 13.7479C58.2298 13.5722 58.2022 13.2601 58.3778 13.0504C58.9302 12.3913 59.5304 11.7577 60.1612 11.1683C60.2867 11.0514 60.4573 11.0122 60.6134 11.0485Z" fill="#91B3FA"/>
<path opacity="0.3" d="M90.2333 12.1328C90.3262 12.1546 90.414 12.2039 90.483 12.2794C90.7697 12.5908 91.0491 12.9123 91.3126 13.2346C91.4853 13.4466 91.4541 13.7579 91.2422 13.9314C91.0302 14.1034 90.7189 14.0722 90.5454 13.861C90.2943 13.5532 90.0279 13.2469 89.7542 12.9494C89.5692 12.7483 89.5822 12.4348 89.7833 12.2504C89.9096 12.135 90.0787 12.0965 90.2333 12.1328Z" fill="#91B3FA"/>
</g>
<path d="M88.365 18.2602C88.3186 18.1644 88.2155 18.1085 88.1096 18.1208L85.0822 18.4873C84.1836 17.3826 83.1021 16.4122 81.8631 15.6305L81.8653 12.5828C81.8653 12.4761 81.7978 12.381 81.6969 12.3454L78.2391 11.15C78.1382 11.1152 78.0257 11.1478 77.9597 11.232L76.0791 13.6309C74.6209 13.4806 73.1714 13.5757 71.783 13.89L69.628 11.7321C69.5525 11.6566 69.4371 11.637 69.3413 11.6835L66.0512 13.2832C65.9546 13.3296 65.8987 13.4327 65.9118 13.5387L66.2783 16.5661C65.1729 17.4647 64.2032 18.5461 63.4215 19.7858L60.3738 19.7837C60.2671 19.7837 60.172 19.8512 60.1364 19.9521L58.941 23.4099C58.9062 23.5108 58.9388 23.6233 59.023 23.6886L61.4219 25.5692C61.2716 27.0274 61.3667 28.4768 61.681 29.8653L59.5231 32.0203C59.4476 32.0958 59.428 32.2112 59.4745 32.307L61.0742 35.5972C61.1207 35.693 61.2237 35.7489 61.3297 35.7365L64.3571 35.37C65.2557 36.4754 66.3371 37.4451 67.5761 38.2268L67.5739 41.2745C67.5739 41.3812 67.6414 41.4763 67.7423 41.5119L71.2001 42.7073C71.301 42.7422 71.4135 42.7095 71.4788 42.6253L73.3594 40.2265C74.8176 40.3767 76.2671 40.2816 77.6563 39.9673L79.8113 42.1252C79.8867 42.2007 80.0021 42.2203 80.098 42.1738L83.3881 40.5741C83.4839 40.5277 83.5398 40.4246 83.5275 40.3186L83.1609 37.2912C84.2663 36.3927 85.236 35.3112 86.0177 34.0715L89.0655 34.0737C89.1722 34.0737 89.2672 34.0062 89.3021 33.9045L90.4975 30.4467C90.5323 30.3458 90.4997 30.2333 90.4155 30.1673L88.0166 28.2867C88.1669 26.8285 88.0718 25.3798 87.7575 23.9905L89.9154 21.8356C89.9909 21.7601 90.0105 21.6447 89.964 21.5489L88.365 18.2602Z" fill="#91B3FA"/>
<path d="M75.5873 23.2877C76.3639 23.4713 77.0592 23.8966 77.5826 24.5187C78.2264 25.2837 78.5341 26.2534 78.4485 27.2499C78.2721 29.3055 76.4561 30.8355 74.3998 30.6598C72.3407 30.4798 70.8136 28.6667 70.9899 26.6105C71.0749 25.6139 71.5437 24.711 72.308 24.0672C73.073 23.4227 74.0427 23.1149 75.0393 23.2013C75.2258 23.2158 75.4087 23.2456 75.5873 23.2877ZM74.0848 29.6088C74.2148 29.6393 74.3476 29.6611 74.484 29.6727C75.9966 29.8019 77.3329 28.6769 77.4621 27.1643C77.5245 26.4319 77.2988 25.7177 76.8248 25.1559C76.3508 24.5934 75.6867 24.2494 74.9536 24.1855C74.2206 24.1231 73.5071 24.3488 72.9446 24.8228C72.3821 25.2967 72.0373 25.9609 71.9749 26.6939C71.858 28.0701 72.7791 29.3004 74.0848 29.6088Z" fill="#F7F8FB"/>
<path d="M76.7879 17.8943C77.0928 17.9662 77.3961 18.054 77.6981 18.1585C78.2976 18.3654 78.8775 18.634 79.4212 18.9569C79.4459 18.9715 79.4698 18.986 79.4945 19.0012C79.6825 19.1152 79.7674 19.3344 79.7202 19.5376C79.7086 19.587 79.689 19.6356 79.6614 19.6813C79.5199 19.915 79.2158 19.9883 78.9821 19.8475C78.4769 19.5412 77.9362 19.2879 77.3758 19.0941C77.3453 19.0832 77.3141 19.0731 77.2836 19.0629C75.9525 18.6173 74.5611 18.52 73.2147 18.7581C72.4838 18.8873 71.766 19.1159 71.0779 19.4432C71.0721 19.4462 71.067 19.4483 71.0612 19.4512C71.0438 19.4599 71.0271 19.4672 71.0104 19.4759C69.0086 20.4492 67.5061 22.144 66.7789 24.2475C66.6845 24.5196 66.6054 24.7947 66.5401 25.0713C66.1009 26.9323 66.3136 28.871 67.1606 30.6137C68.134 32.6155 69.8287 34.1179 71.9322 34.8445C74.0349 35.5703 76.2965 35.436 78.2983 34.4627C80.3002 33.4894 81.8026 31.7946 82.5299 29.6911C82.6228 29.4233 82.7012 29.1519 82.7658 28.8782C83.0459 27.6908 83.0633 26.4561 82.8115 25.2614C82.7962 25.1881 82.7977 25.1148 82.8144 25.0459C82.8572 24.8651 83.0002 24.7156 83.194 24.675C83.4618 24.6198 83.7238 24.7897 83.7805 25.0575C84.0614 26.3937 84.0425 27.7757 83.7296 29.1039C83.6571 29.4102 83.5692 29.7144 83.4662 30.0134C82.6525 32.3672 80.9715 34.2631 78.7317 35.3518C76.4925 36.4406 73.9637 36.5944 71.6099 35.7786C69.2561 34.965 67.361 33.284 66.2722 31.0448C65.3243 29.0952 65.0862 26.9258 65.5776 24.8441C65.6509 24.5349 65.7395 24.2271 65.8447 23.923C67.4169 19.3678 72.1927 16.81 76.7879 17.8943Z" fill="#F7F8FB"/>
<path d="M6.42713 162.001C9.31227 132.899 16.532 60.619 18.1085 50.0539C20.0892 36.7757 36.3607 39.7059 36.3607 39.7059L39.8446 174.077H17.1577C14.1085 174.077 11.2008 172.763 9.15767 170.458C7.11376 168.154 6.12083 165.09 6.42713 162.001Z" fill="url(#paint0_linear)"/>
<path d="M189.971 177.465C197.056 177.315 202.676 171.45 202.526 164.366L200.212 55.2787C200.085 49.2602 195.263 44.3979 189.246 44.2194L30.9212 39.5218C26.2128 39.3817 22.3239 43.1684 22.3384 47.879L22.718 172.955C22.7311 177.381 26.3733 180.935 30.7986 180.842L189.971 177.465Z" fill="#2F33A7"/>
<path d="M200.174 168.308C202.441 168.273 204.153 166.243 203.801 164.003C201.465 149.149 194.13 98.0557 196.483 55.6335C196.591 53.6992 195.091 52.0538 193.155 51.9921L34.116 46.9186C31.9357 46.8489 30.1081 48.5517 30.0253 50.732C29.3488 68.567 26.8302 142.013 30.1255 168.121C30.3258 169.71 31.6925 170.891 33.2937 170.866L200.174 168.308Z" fill="url(#paint1_linear)"/>
<path d="M196.156 166.638C198.338 166.605 199.986 164.651 199.647 162.495C197.399 148.201 190.34 99.0306 192.604 58.206C192.707 56.3443 191.265 54.7612 189.401 54.7017L36.351 49.8198C34.2526 49.7531 32.494 51.3912 32.4141 53.4896C31.7631 70.6531 29.3388 141.333 32.5107 166.458C32.7037 167.987 34.0189 169.123 35.5598 169.099L196.156 166.638Z" fill="#91B3FA"/>
<path d="M102.088 80.6397L102.322 91.662C102.357 93.3445 101.009 94.7301 99.3253 94.7395L88.0192 94.8034C86.3731 94.8128 85.0238 93.4991 84.9889 91.8536L84.7429 80.2651C84.7059 78.5232 86.1488 77.1129 87.8893 77.1906L99.207 77.6921C100.794 77.7625 102.054 79.0516 102.088 80.6397Z" fill="#F7F8FB"/>
<path opacity="0.72" d="M141.616 94.645L130.31 94.7089C128.664 94.7183 127.315 93.4046 127.28 91.7591L127.071 81.9032C127.034 80.1714 128.461 78.7655 130.192 78.8272L141.508 79.2336C143.104 79.2909 144.379 80.5844 144.412 82.1812L144.611 91.5668C144.648 93.25 143.3 94.6356 141.616 94.645Z" fill="white"/>
<path opacity="0.72" d="M131.711 143.743L142.465 143.639C144.267 143.621 145.747 145.056 145.785 146.858L145.999 156.929C146.036 158.719 144.638 160.209 142.849 160.285L132.102 160.74C130.26 160.818 128.714 159.367 128.675 157.524L128.453 147.102C128.416 145.271 129.88 143.761 131.711 143.743Z" fill="white"/>
<path d="M149.805 156.687L149.595 146.84C149.557 145.041 150.996 143.556 152.796 143.539L163.663 143.434C165.434 143.416 166.889 144.827 166.927 146.598L167.128 156.091C167.165 157.849 165.79 159.314 164.033 159.389L153.173 159.848C151.363 159.925 149.843 158.499 149.805 156.687Z" fill="#F7F8FB"/>
<path opacity="0.72" d="M148.862 112.231L148.69 104.148C148.649 102.195 150.222 100.592 152.174 100.596L162.552 100.615C164.442 100.618 165.984 102.13 166.024 104.019L166.188 111.744C166.228 113.65 164.728 115.233 162.823 115.295L152.454 115.635C150.517 115.698 148.902 114.168 148.862 112.231Z" fill="white"/>
<path opacity="0.72" d="M149.359 135.723L149.097 123.358C149.059 121.588 150.453 120.117 152.223 120.059L162.836 119.712C164.772 119.649 166.387 121.178 166.428 123.114L166.692 135.584C166.731 137.396 165.273 138.885 163.461 138.885L152.591 138.887C150.832 138.887 149.397 137.481 149.359 135.723Z" fill="white"/>
<path d="M120.473 94.764L109.167 94.8278C107.52 94.8373 106.171 93.5235 106.136 91.8781L105.908 81.1424C105.871 79.4106 107.299 78.0047 109.029 78.0664L120.345 78.4729C121.942 78.5302 123.216 79.8236 123.25 81.4212L123.467 91.6865C123.504 93.3689 122.155 94.7545 120.473 94.764Z" fill="#FF5668"/>
<path d="M128.212 135.67L127.967 124.106C127.928 122.306 129.346 120.808 131.147 120.749L141.897 120.397C143.727 120.337 145.253 121.784 145.293 123.615L145.545 135.529C145.584 137.372 144.101 138.888 142.257 138.888L131.501 138.889C129.711 138.889 128.25 137.458 128.212 135.67Z" fill="#F7F8FB"/>
<path opacity="0.72" d="M108.872 100.518L121.219 100.54C122.574 100.542 123.679 101.627 123.708 102.982L123.944 114.101C123.973 115.467 122.897 116.602 121.531 116.647L109.194 117.05C107.806 117.096 106.648 115.999 106.619 114.61L106.374 103.064C106.344 101.665 107.472 100.515 108.872 100.518Z" fill="white"/>
<path opacity="0.72" d="M102.574 103.569L102.799 114.159C102.836 115.876 101.484 117.302 99.7675 117.359L88.7111 117.721C86.9662 117.779 85.5109 116.399 85.4739 114.655L85.2409 103.683C85.2039 101.924 86.6215 100.478 88.3808 100.481L99.446 100.502C101.149 100.504 102.539 101.866 102.574 103.569Z" fill="white"/>
<path opacity="0.72" d="M142.664 115.954L130.326 116.358C128.938 116.404 127.78 115.306 127.751 113.918L127.522 103.102C127.492 101.702 128.62 100.553 130.02 100.555L142.367 100.577C143.722 100.58 144.827 101.664 144.856 103.019L145.077 113.408C145.105 114.774 144.03 115.909 142.664 115.954Z" fill="white"/>
<path opacity="0.72" d="M110.016 121.441L120.765 121.089C122.595 121.028 124.122 122.475 124.161 124.306L124.399 135.531C124.439 137.374 122.955 138.89 121.111 138.89L110.355 138.891C108.566 138.891 107.104 137.461 107.066 135.672L106.835 124.798C106.797 122.996 108.215 121.5 110.016 121.441Z" fill="white"/>
<path d="M88.5122 122.145L100.014 121.768C101.635 121.715 102.987 122.996 103.021 124.617L103.261 135.918C103.296 137.55 101.982 138.892 100.35 138.893L88.8395 138.894C87.255 138.894 85.9609 137.627 85.9275 136.043L85.696 125.117C85.6619 123.523 86.9175 122.197 88.5122 122.145Z" fill="#F7F8FB"/>
<path opacity="0.72" d="M161.18 94.389L152.598 94.4376C150.316 94.4507 148.445 92.6296 148.397 90.3476L148.247 83.2679C148.201 81.1289 149.964 79.392 152.103 79.4682L161.652 79.8108C163.819 79.8885 165.548 81.6435 165.594 83.8116L165.72 89.7241C165.774 92.2739 163.73 94.3745 161.18 94.389Z" fill="white"/>
<path opacity="0.72" d="M170.743 146.885C170.702 144.948 172.251 143.351 174.188 143.332L177.926 143.296C180.766 143.269 183.09 145.146 183.14 147.511L183.285 154.355C183.334 156.701 181.129 158.665 178.315 158.785L174.301 158.955C172.491 159.032 170.971 157.606 170.933 155.794L170.743 146.885Z" fill="white"/>
<path opacity="0.72" d="M50.5434 144.532L57.8945 144.461C59.6974 144.444 61.1788 145.88 61.2173 147.683L61.4895 160.506C61.5272 162.297 60.1271 163.789 58.3379 163.865L51.0202 164.174C48.1024 164.298 45.6542 162.395 45.6027 159.965L45.369 148.968C45.3182 146.557 47.6466 144.561 50.5434 144.532Z" fill="white"/>
<path opacity="0.72" d="M177.627 138.884L173.979 138.885C172.086 138.885 170.541 137.372 170.501 135.48L170.234 122.911C170.194 121.006 171.694 119.423 173.598 119.36L177.271 119.24C180.167 119.145 182.578 121.041 182.628 123.452L182.861 134.448C182.913 136.879 180.548 138.883 177.627 138.884Z" fill="white"/>
<path opacity="0.72" d="M177.321 114.822L172.727 114.972C171.263 115.02 170.043 113.863 170.011 112.398L169.819 103.32C169.788 101.843 170.977 100.631 172.454 100.633L177.092 100.642C179.906 100.647 182.185 102.515 182.235 104.857L182.352 110.389C182.402 112.755 180.16 114.729 177.321 114.822Z" fill="white"/>
<path d="M49.3699 75.7795L56.742 76.0444C58.4027 76.1039 59.7288 77.4496 59.7636 79.111L60.0322 91.7773C60.0692 93.5273 58.6662 94.9688 56.9155 94.979L49.3249 95.0218C46.4935 95.0377 44.1861 93.1629 44.136 90.8069L43.911 80.2121C43.858 77.7058 46.3643 75.6714 49.3699 75.7795Z" fill="#4D53E0"/>
<path d="M110.569 143.949L121.323 143.845C123.125 143.827 124.605 145.262 124.643 147.064L124.871 157.824C124.909 159.613 123.51 161.104 121.722 161.18L110.974 161.635C109.132 161.713 107.586 160.262 107.547 158.419L107.311 147.307C107.274 145.477 108.738 143.967 110.569 143.949Z" fill="#F7F8FB"/>
<path opacity="0.72" d="M49.6788 100.411L57.1511 100.425C58.8546 100.428 60.2438 101.791 60.2801 103.494L60.5356 115.543C60.5719 117.26 59.2204 118.687 57.5038 118.743L50.0017 118.989C47.1064 119.084 44.6953 117.188 44.6445 114.777L44.434 104.847C44.381 102.412 46.7537 100.405 49.6788 100.411Z" fill="white"/>
<path d="M49.9514 123.406L57.7503 123.151C59.3711 123.098 60.7233 124.379 60.7574 126L60.9679 135.923C61.0027 137.555 59.689 138.896 58.0566 138.897L50.22 138.898C47.4023 138.898 45.116 137.028 45.0659 134.682L44.9207 127.838C44.8707 125.474 47.112 123.499 49.9514 123.406Z" fill="#F7F8FB"/>
<path opacity="0.72" d="M81.889 125.308L82.114 135.92C82.1488 137.552 80.8351 138.894 79.2027 138.894L67.6927 138.896C66.1082 138.896 64.8141 137.629 64.7807 136.045L64.5637 125.809C64.5296 124.214 65.7859 122.888 67.3798 122.836L78.8819 122.46C80.5027 122.406 81.8549 123.687 81.889 125.308Z" fill="white"/>
<path opacity="0.72" d="M68.287 144.36L79.0364 144.255C80.8394 144.238 82.3208 145.674 82.3592 147.477L82.6169 159.611C82.6546 161.401 81.2545 162.893 79.4654 162.969L68.7232 163.423C66.8797 163.502 65.3322 162.049 65.293 160.204L65.0281 147.72C64.9896 145.889 66.455 144.377 68.287 144.36Z" fill="white"/>
<path opacity="0.72" d="M176.717 94.3009L172.218 94.3263C170.781 94.3343 169.604 93.1882 169.573 91.7511L169.385 82.8721C169.353 81.3602 170.599 80.1329 172.11 80.1873L176.874 80.3586C179.601 80.4566 181.756 82.2965 181.804 84.5698L181.917 89.8661C181.967 92.2846 179.624 94.2842 176.717 94.3009Z" fill="white"/>
<path d="M89.4296 144.154L99.9976 144.052C101.901 144.034 103.465 145.55 103.505 147.452L103.744 158.716C103.782 160.507 102.382 161.999 100.593 162.075L89.8513 162.529C88.0077 162.607 86.4603 161.155 86.4211 159.31L86.1707 147.515C86.1315 145.684 87.5969 144.172 89.4296 144.154Z" fill="#F7F8FB"/>
<path opacity="0.72" d="M80.9255 79.8697L81.1759 91.6564C81.2129 93.4063 79.8099 94.8478 78.0592 94.858L66.9963 94.9204C65.2841 94.9298 63.8804 93.5638 63.8441 91.8516L63.5842 79.6048C63.5458 77.8033 65.0308 76.3408 66.8315 76.4054L77.9046 76.8031C79.5646 76.8626 80.8907 78.2083 80.9255 79.8697Z" fill="white"/>
<path opacity="0.72" d="M81.4275 103.533L81.6678 114.853C81.7041 116.57 80.3526 117.996 78.636 118.053L67.5789 118.415C65.834 118.472 64.3787 117.093 64.3417 115.348L64.0935 103.646C64.0565 101.887 65.474 100.441 67.2334 100.444L78.2985 100.465C80.002 100.467 81.3912 101.829 81.4275 103.533Z" fill="white"/>
<path d="M177.943 70.8108L177.434 74.5437C177.27 75.7392 176.262 76.6377 175.057 76.6639L174.88 76.6675C173.526 76.6965 172.406 75.6223 172.377 74.2679L172.295 70.4472C172.264 68.9665 173.542 67.7965 175.015 67.9583L175.782 68.0425C177.153 68.1928 178.13 69.4441 177.943 70.8108Z" fill="white"/>
<path d="M160.619 69.849L160.109 73.5819C159.946 74.7774 158.938 75.6759 157.732 75.7021L157.556 75.7057C156.202 75.734 155.082 74.6605 155.053 73.3061L154.971 69.4854C154.94 68.0047 156.218 66.834 157.691 66.9966L158.457 67.0808C159.828 67.231 160.805 68.4823 160.619 69.849Z" fill="white"/>
<path d="M139.303 70.1419L138.793 73.8748C138.63 75.0702 137.622 75.9688 136.416 75.9949L136.24 75.9985C134.886 76.0276 133.766 74.9534 133.737 73.599L133.655 69.7782C133.624 68.2976 134.902 67.1275 136.375 67.2894L137.141 67.3736C138.513 67.5246 139.489 68.7759 139.303 70.1419Z" fill="white"/>
<path d="M118.535 69.2122L118.025 72.9444C117.862 74.1398 116.854 75.0384 115.648 75.0645L115.472 75.0681C114.118 75.0972 112.998 74.0229 112.969 72.6693L112.887 68.8486C112.856 67.3679 114.134 66.1979 115.607 66.3597L116.374 66.4439C117.744 66.5942 118.721 67.8455 118.535 69.2122Z" fill="white"/>
<path d="M97.2038 66.501L96.6943 70.2339C96.531 71.4286 95.5228 72.3279 94.3172 72.354L94.1409 72.3577C92.7872 72.3867 91.6665 71.3118 91.6375 69.9581L91.5562 66.1374C91.525 64.6567 92.8032 63.4859 94.2759 63.6478L95.0423 63.732C96.4134 63.883 97.3904 65.1343 97.2038 66.501Z" fill="white"/>
<path d="M74.6072 66.9796L74.0976 70.7126C73.9343 71.908 72.9262 72.8066 71.7206 72.832L71.5442 72.8356C70.1905 72.8646 69.0699 71.7904 69.0408 70.436L68.9595 66.6153C68.9283 65.1346 70.2065 63.9639 71.6792 64.1264L72.4464 64.2106C73.8175 64.3623 74.7937 65.6136 74.6072 66.9796Z" fill="white"/>
<path d="M55.5334 66.5804L55.0239 70.3133C54.8606 71.5087 53.8524 72.4073 52.6468 72.4334L52.4705 72.437C51.1168 72.4661 49.9961 71.3918 49.9671 70.0375L49.8858 66.2167C49.8546 64.736 51.1328 63.566 52.6055 63.7279L53.3719 63.8121C54.7437 63.9623 55.72 65.2136 55.5334 66.5804Z" fill="white"/>
<path d="M22.3384 172.007C22.559 172.007 22.7383 171.83 22.7398 171.609L23.2275 101.182C23.229 100.96 23.0504 100.779 22.8291 100.777C22.8283 100.777 22.8269 100.777 22.8269 100.777C22.6055 100.777 22.4262 100.955 22.4248 101.176L21.937 171.603C21.9356 171.824 22.1141 172.006 22.3355 172.007C22.3355 172.007 22.3369 172.007 22.3384 172.007Z" fill="white"/>
<path d="M22.938 85.4085C23.1587 85.4085 23.3379 85.2306 23.3394 85.01L23.51 60.4126C23.5114 60.1912 23.3329 60.0098 23.1115 60.0083C23.1108 60.0083 23.1093 60.0083 23.1093 60.0083C22.8879 60.0083 22.7086 60.1861 22.7072 60.4068L22.5366 85.0042C22.5352 85.2256 22.7137 85.407 22.9351 85.4085H22.938Z" fill="#91B3FA"/>
<path d="M173.675 64.7569C176.045 64.7569 177.966 62.8358 177.966 60.4659C177.966 58.096 176.045 56.1748 173.675 56.1748C171.305 56.1748 169.384 58.096 169.384 60.4659C169.384 62.8358 171.305 64.7569 173.675 64.7569Z" fill="url(#paint2_linear)"/>
<path d="M138.516 64.4264C140.886 64.4264 142.807 62.5052 142.807 60.1353C142.807 57.7654 140.886 55.8442 138.516 55.8442C136.146 55.8442 134.225 57.7654 134.225 60.1353C134.225 62.5052 136.146 64.4264 138.516 64.4264Z" fill="url(#paint3_linear)"/>
<path d="M103.028 63.2706C105.398 63.2706 107.319 61.3494 107.319 58.9795C107.319 56.6097 105.398 54.6885 103.028 54.6885C100.658 54.6885 98.7368 56.6097 98.7368 58.9795C98.7368 61.3494 100.658 63.2706 103.028 63.2706Z" fill="url(#paint4_linear)"/>
<path d="M67.8682 61.6202C70.2381 61.6202 72.1592 59.699 72.1592 57.3291C72.1592 54.9593 70.2381 53.0381 67.8682 53.0381C65.4983 53.0381 63.5771 54.9593 63.5771 57.3291C63.5771 59.699 65.4983 61.6202 67.8682 61.6202Z" fill="url(#paint5_linear)"/>
<path d="M64.6047 27.5947C71.8259 29.1704 71.1443 48.1681 70.5637 55.8814C70.4272 57.6967 68.9153 59.0968 67.095 59.0968C66.5898 59.0968 66.1086 58.8791 65.7704 58.5031C65.4329 58.1271 65.2717 57.6241 65.3254 57.1219C65.9489 51.2921 67.2764 34.5045 61.9605 33.6067C61.9605 33.6067 58.1471 32.9317 57.5054 40.3184H53.3799C53.3799 40.3176 55.5254 25.6139 64.6047 27.5947Z" fill="#FF5668"/>
<path d="M99.7636 28.5719C106.985 30.1477 106.303 49.1519 105.723 56.8652C105.586 58.6805 104.074 60.0835 102.254 60.0835C101.749 60.0835 101.268 59.8679 100.93 59.4912C100.593 59.1152 100.431 58.613 100.485 58.1107C101.109 52.2809 102.436 35.4803 97.1202 34.5824C97.1202 34.5824 93.3067 34.0555 92.6651 41.281H88.5396C88.5388 41.281 90.6851 26.5911 99.7636 28.5719Z" fill="#FF5668"/>
<path d="M134.922 29.5534C142.143 31.1292 141.462 50.1378 140.881 57.8511C140.745 59.6663 139.233 61.0715 137.412 61.0715C136.907 61.0715 136.426 60.8567 136.088 60.4807C135.751 60.1047 135.59 59.6032 135.644 59.1009C136.267 53.2711 137.595 36.4618 132.279 35.564C132.279 35.564 128.467 35.135 127.826 42.3976L123.699 42.2539C123.697 42.2546 125.843 27.5727 134.922 29.5534Z" fill="#FF5668"/>
<path d="M170.082 30.6889C177.303 32.2647 176.621 51.2834 176.041 58.9967C175.904 60.812 174.392 62.2223 172.572 62.2223C172.067 62.2223 171.586 62.0104 171.247 61.6337C170.91 61.2577 170.749 60.7569 170.802 60.2546C171.426 54.4248 172.754 37.5959 167.438 36.698C167.438 36.698 163.624 36.1428 162.983 43.3683H158.857C158.858 43.3691 161.003 28.7082 170.082 30.6889Z" fill="#FF5668"/>
<path d="M28.6245 100.625L32.5795 113.167C32.5795 113.167 37.1689 116.55 43.0211 113.321C43.9204 112.828 44.8502 112.182 45.7931 111.337C52.8959 104.998 48.1832 95.7765 48.1832 95.7765C48.1832 95.7765 53.6043 93.5896 51.1953 88.9879C51.0291 88.6736 50.5668 88.723 50.4681 89.0677C50.1168 90.3365 49.2603 92.5546 47.4675 93.3428C47.3753 93.3799 47.289 93.4227 47.2091 93.4597C47.1293 93.2195 47.1293 92.9364 47.3202 92.6344C47.8812 91.7845 46.8709 90.6203 46.8709 90.6203C46.8709 90.6203 46.8034 91.6488 46.0268 92.2897C45.3554 92.85 45.0353 94.0825 45.4911 95.0986C46.4644 98.8693 47.9183 103.853 42.2569 107.499C41.6777 107.869 41.0738 108.097 40.4583 108.195C35.0502 109.101 28.6245 100.625 28.6245 100.625Z" fill="url(#paint6_linear)"/>
<path d="M28.6245 100.624L32.5795 113.166C32.5795 113.166 37.1689 116.549 43.0212 113.32L40.4583 108.195C35.0502 109.1 28.6245 100.624 28.6245 100.624Z" fill="#FFC405"/>
<path d="M27.4388 85.2434C27.4388 85.2434 29.6779 77.4437 21.2991 79.5893C21.2991 79.5893 17.1938 79.0173 17.077 82.8816C17.077 82.8816 15.3031 85.5555 15.2276 88.8508C15.2276 88.8508 7.1608 90.9361 5.88771 94.1681C4.58487 97.4764 5.30778 102.731 8.6197 103.639C8.6197 103.639 5.98643 105.04 7.31903 108.031C8.65164 111.022 15.0897 113.002 18.7761 109.239C18.7761 109.239 29.5466 110.406 29.1532 102.826C29.1532 102.826 34.0713 99.4841 28.6785 93.34C23.2864 87.1952 27.4388 85.2434 27.4388 85.2434Z" fill="#FF5668"/>
<path d="M28.094 99.2443C26.4007 98.737 21.4702 97.7992 16.7807 102.127C15.9852 102.861 15.66 103.977 15.9438 105.021C17.2031 109.658 20.5266 123.36 17.6125 129.288C17.6125 129.288 22.7476 134.948 28.3502 130.386C28.3502 130.386 30.8638 119.43 34.1561 114.621C36.4293 111.3 30.5313 102.152 29.039 99.9418C28.814 99.608 28.4809 99.3605 28.094 99.2443Z" fill="#FFC405"/>
<path d="M23.4189 90.0322C23.4189 90.0322 20.9148 97.1163 20.7261 100.241C20.7261 100.241 23.4936 101.5 26.1022 99.375C26.1022 99.375 26.3759 92.2997 26.7714 91.0324L23.4189 90.0322Z" fill="url(#paint7_linear)"/>
<path d="M27.435 83.0352C27.435 83.0352 34.199 92.0455 30.347 94.7993C26.4951 97.5531 21.68 91.1506 21.68 91.1506C21.68 91.1506 20.0426 86.1707 21.5915 84.4317C23.1411 82.6926 27.435 83.0352 27.435 83.0352Z" fill="url(#paint8_linear)"/>
<path d="M24.3515 80.9145C24.3515 80.9145 27.3767 81.5569 27.8303 82.9076C28.284 84.2591 23.6256 85.6316 22.3141 85.7238L21.385 91.2415C21.385 91.2415 18.1348 86.1477 19.3041 83.1348C20.4727 80.1219 24.3515 80.9145 24.3515 80.9145Z" fill="#FF5668"/>
<path d="M22.9334 90.4442C22.9334 90.4442 20.3154 87.5525 19.3464 89.5006C18.3774 91.4487 21.7198 92.8155 22.8427 91.8443L22.9334 90.4442Z" fill="url(#paint9_linear)"/>
<path d="M34.8911 153.388C34.8722 153.885 35.7453 157.83 36.22 159.934C36.4116 160.78 36.2781 161.666 35.847 162.42L19.3897 190.12C19.1908 190.455 19.0457 190.818 18.9578 191.198C18.6559 192.498 18.031 195.684 18.3576 198.582L19.209 200.35L15.5269 199.514L14.7256 189.625L15.7679 188.989C16.6686 188.44 17.3697 187.62 17.7711 186.644C19.2591 183.03 22.9549 173.828 23.9072 169.343C24.9901 164.246 30.6494 160.107 30.6494 160.107L29.655 157.756L34.8911 153.388Z" fill="url(#paint10_linear)"/>
<path d="M11.4331 196.112C11.4331 196.112 13.4219 192.959 13.6556 191.732C13.8893 190.505 14.5411 188.338 15.767 188.99C15.767 188.99 16.3447 194.951 16.1459 197.28C15.947 199.609 18.7791 199.535 18.7791 199.535C18.7791 199.535 19.5601 199.644 20.1313 200.215C20.5262 200.61 20.2438 201.295 19.6864 201.33C18.7595 201.39 17.2876 201.406 15.7416 201.107C15.2016 201.002 14.8009 200.543 14.7682 199.993L14.3603 193.132L11.8519 196.299L11.4331 196.112Z" fill="#2F33A7"/>
<path d="M25.059 157.802C25.059 157.802 24.4783 182.579 24.3999 186.098C24.3215 189.617 24.9559 197.416 28.4834 199.747L26.9483 200.883C26.9483 200.883 25.0299 199.253 23.1559 196.115C21.0503 192.589 20.4137 191.946 20.4137 191.946L21.112 190.515C21.4175 189.889 21.5075 189.18 21.3667 188.497C20.6053 184.808 18.0621 172.536 17.3689 169.892C16.5502 166.773 16.4914 162.606 19.341 159.119C22.1898 155.632 25.059 157.802 25.059 157.802Z" fill="url(#paint11_linear)"/>
<path d="M21.8009 201.999C21.6913 201.999 21.5984 201.922 21.5832 201.813C21.4656 200.987 20.9771 197.675 20.5772 196.818C20.1192 195.836 18.6226 191.702 20.5779 191.352C20.5779 191.352 25.4388 198.454 26.3722 199.411C27.3056 200.368 28.4828 199.746 28.4828 199.746C28.4828 199.746 29.3923 200.014 30.0775 200.89C30.4041 201.307 30.1 201.92 29.5701 201.925L26.2959 201.956C25.3451 201.965 24.4901 201.388 24.1359 200.504C23.5596 199.065 22.5696 196.953 21.4155 196.016L22.0151 201.758C22.0296 201.885 21.9294 201.997 21.8009 201.999Z" fill="#2F33A7"/>
<path d="M29.1253 127.716C29.1253 127.716 28.3879 130.068 29.5209 133.941L36.5527 158.496C36.663 158.882 36.4547 159.286 36.0772 159.421C33.9738 160.176 27.0597 162.31 17.6211 161.659C17.1457 161.626 16.7472 161.29 16.6441 160.825C16.0221 158.026 13.9005 148.474 13.4636 146.512C11.7993 139.034 9.94046 130.97 18.1176 126.094C21.886 127.708 25.4004 128.66 29.1253 127.716Z" fill="url(#paint12_linear)"/>
<path d="M6.39373 118.222C6.39373 118.222 6.34002 118.226 6.34002 118.219C7.22624 117.523 11.9303 117.498 11.9303 117.498C11.9303 117.498 15.3467 112.551 16.5044 111.323C16.5421 111.286 16.5806 111.248 16.6118 111.216C16.6372 111.191 16.6626 111.165 16.7004 111.134C17.1243 110.742 17.5735 110.349 18.0606 109.944C18.5977 109.495 19.0281 108.919 19.2879 108.268C21.0974 103.713 19.6675 100.734 16.3781 102.644C16.3781 102.644 9.42548 108.419 6.7247 116.606C6.69349 116.707 6.66809 116.802 6.63543 116.897C6.52801 117.277 6.42058 117.637 6.32623 117.973C6.31969 117.998 6.34655 118.034 6.34074 118.059C6.32042 118.116 6.4126 118.166 6.39373 118.222Z" fill="#FFC405"/>
<path d="M23.5889 121.195C23.5889 121.195 15.509 125.761 12.7821 121.862C12.216 121.052 11.7907 118.264 11.93 117.497C9.50796 116.274 7.68543 118.072 6.32524 117.972C5.96814 119.841 5.79539 121.661 6.89356 123.67C11.6695 132.406 24.6573 123.187 24.6573 123.187L23.5889 121.195Z" fill="url(#paint13_linear)"/>
<path d="M22.6183 126.97L27.0284 111.57C27.0784 111.395 27.2272 111.268 27.408 111.247C28.2071 111.154 30.5217 110.892 33.1949 110.665C36.4147 110.393 40.1541 110.172 42.3882 110.36C42.7061 110.386 42.8977 110.723 42.7562 111.008C41.4853 113.579 36.2593 124.035 33.6413 127.461C33.5549 127.574 33.4207 127.641 33.2777 127.639L23.0458 127.544C22.7497 127.541 22.5363 127.256 22.6183 126.97Z" fill="#2F33A7"/>
<path d="M33.653 109.33L36.8502 108.797C37.0208 108.769 37.1602 108.931 37.1057 109.095L36.7893 110.054C36.7617 110.138 36.6891 110.198 36.602 110.21L33.5253 110.62C33.3663 110.641 33.2349 110.497 33.2712 110.341L33.4672 109.503C33.4882 109.414 33.5615 109.345 33.653 109.33Z" fill="url(#paint14_linear)"/>
<path d="M31.2588 112.037L31.5223 110.665C31.5484 110.528 31.6624 110.424 31.8017 110.41L38.2594 109.755C38.4764 109.733 38.6506 109.932 38.5998 110.144L38.189 111.854C38.1563 111.99 38.0373 112.09 37.8965 112.096L31.5862 112.414C31.3808 112.424 31.2196 112.24 31.2588 112.037Z" fill="url(#paint15_linear)"/>
<path d="M23.6836 123.249C23.6836 123.249 23.0696 120.723 23.3171 119.826C23.5646 118.93 24.0451 117.778 25.6455 118.034C27.246 118.291 29.1338 118.965 29.1338 118.965C29.1338 118.965 29.0387 120.132 27.8223 119.755L28.5764 120.339C28.5764 120.339 28.4682 121.274 27.4412 120.774L28.1431 121.548C28.1431 121.548 27.7018 122.316 26.9462 121.823C26.1899 121.331 25.827 123.553 23.6836 123.249Z" fill="url(#paint16_linear)"/>
<path d="M167.467 196.743C169.742 196.94 173.691 197.259 176.803 197.396C178.674 197.478 179.751 197.296 180.372 197.047C180.371 197.117 180.369 197.183 180.366 197.245C180.352 197.572 180.085 197.834 179.754 197.853C173.872 198.181 169.194 197.967 167.529 197.865C167.185 197.844 166.98 197.47 167.155 197.176C167.244 197.029 167.351 196.885 167.467 196.743Z" fill="url(#paint17_linear)"/>
<path d="M176.803 197.395C173.689 197.258 169.741 196.939 167.466 196.742C169.703 193.998 176.803 192.148 176.803 192.148H178.808C180.187 194.136 180.387 196.029 180.371 197.046C179.752 197.294 178.674 197.478 176.803 197.395Z" fill="#2F33A7"/>
<path d="M179.146 188.875L178.958 192.588C178.937 192.99 178.636 193.329 178.233 193.386C177.833 193.443 177.296 193.451 176.727 193.261C176.377 193.144 176.118 192.85 176.053 192.49L175.405 188.875H179.146Z" fill="url(#paint18_linear)"/>
<path d="M202.418 201.027C203.405 200.849 203.851 200.186 204.038 199.479C204.04 199.485 204.04 199.492 204.042 199.497C204.187 200.244 203.85 201.019 203.177 201.387C202.365 201.832 201.475 201.908 200.785 201.871C200.045 201.832 199.365 201.435 198.992 200.802L198.986 200.792C199.73 201.268 200.773 201.324 202.418 201.027Z" fill="url(#paint19_linear)"/>
<path d="M197.767 190.019H199.421C201.939 189.952 203.521 196.819 204.039 199.478C203.852 200.186 203.405 200.848 202.419 201.026C200.773 201.323 199.73 201.266 198.987 200.792C197.626 198.477 196.951 195.087 196.627 193.11C196.258 190.86 197.767 190.019 197.767 190.019Z" fill="#2F33A7"/>
<path d="M199.207 186.572L200.125 190.225C200.238 190.672 200.024 191.135 199.609 191.348C199.095 191.612 198.372 191.889 197.708 191.808C197.395 191.771 197.136 191.551 197.032 191.256L195.684 187.413L199.207 186.572Z" fill="url(#paint20_linear)"/>
<path d="M166.906 138.472C166.906 138.472 175.112 189.765 174.977 190.048C174.977 190.048 177.243 191.078 179.714 190.179C179.714 190.179 178.972 162.759 177.233 152.245C177.233 152.245 191.238 176.754 195.685 188.966C195.685 188.966 198.005 188.689 199.925 187.425C199.925 187.425 184.846 143.312 180.822 137.437L166.906 138.472Z" fill="#4D53E0"/>
<path d="M176.906 151.978C176.95 151.978 176.995 151.967 177.035 151.941C177.148 151.87 177.183 151.721 177.111 151.607L174.045 146.71C174.009 146.653 173.953 146.614 173.887 146.601L171.631 146.146C171.499 146.12 171.372 146.205 171.346 146.336C171.319 146.467 171.404 146.595 171.535 146.621L173.689 147.054L176.701 151.864C176.746 151.938 176.825 151.978 176.906 151.978Z" fill="url(#paint21_linear)"/>
<path d="M129.251 88.2461C129.251 88.2461 134.788 89.4677 138.156 91.0224C138.825 91.3308 139.359 91.8709 139.662 92.5364C140.669 94.7429 143.683 100.276 149.527 102.916C148.685 104.033 147.33 106.357 146.74 110.262C143.23 107.65 140.2 103.287 138.745 96.1314C138.745 96.1314 137.637 96.7339 136.255 96.0625C135.525 95.7075 134.681 95.2046 134.049 94.809C133.419 94.4149 132.949 93.8023 132.767 93.0866C132.526 92.1416 132.668 91.3105 132.668 90.4192L129.822 89.5373C129.821 89.5373 128.965 89.2151 129.251 88.2461Z" fill="url(#paint22_linear)"/>
<path d="M146.74 110.263C147.33 106.357 148.685 104.034 149.527 102.917C153.157 104.557 157.88 105.081 163.894 102.997C164.448 102.805 165.026 102.692 165.613 102.658C168.814 102.47 179.364 102.128 188.093 105.012C189.93 105.619 191.418 106.978 192.186 108.737C194.547 114.156 198.37 126.498 187.757 132.729C186.941 130.705 186 129.077 185.195 127.881C186.904 124.998 187.41 121.061 184.377 115.933C182.166 121.905 181.128 130.619 180.911 134.475C180.84 135.745 181.063 137.012 181.561 138.184L181.615 138.312C181.722 138.563 181.575 138.851 181.307 138.912C175.332 140.254 169.118 139.889 167.261 139.735C166.929 139.708 166.654 139.471 166.578 139.15C163.672 126.908 163.666 118.557 164.377 113.277C161.66 113.885 153.349 115.182 146.74 110.263Z" fill="#FFC405"/>
<path d="M164.365 113.608C164.485 113.608 164.589 113.519 164.606 113.397C165.288 108.242 166.678 105.993 166.692 105.971C166.763 105.857 166.729 105.708 166.616 105.636C166.504 105.565 166.354 105.598 166.282 105.711C166.223 105.804 164.823 108.057 164.125 113.333C164.108 113.466 164.201 113.588 164.333 113.606C164.344 113.607 164.355 113.608 164.365 113.608Z" fill="url(#paint23_linear)"/>
<path d="M179.111 95.5254C179.111 95.5254 179.716 101.916 180.248 103.807C180.328 104.094 180.204 104.396 179.943 104.545C179.041 105.061 176.874 105.903 173.91 104.451C173.431 104.216 173.142 103.715 173.164 103.186L173.426 97.0097L179.111 95.5254Z" fill="url(#paint24_linear)"/>
<path d="M173.296 87.3496C173.296 87.3496 171.362 91.7909 171.232 94.1215C171.102 96.4522 170.6 97.9655 173.296 98.4344C175.99 98.904 178.262 97.5612 179.491 95.2393C179.491 95.2393 181.418 91.6617 180.986 90.1963C180.554 88.7316 173.296 87.3496 173.296 87.3496Z" fill="url(#paint25_linear)"/>
<path d="M178.569 93.5701L178.416 93.5025C178.221 93.4162 178.137 93.1839 178.235 92.9945C178.616 92.2599 179.357 90.5775 178.399 90.1848C177.165 89.6789 172.279 88.6824 171.225 86.9484C170.212 85.2819 171.11 83.1313 172.459 82.5194C172.549 82.4788 172.656 82.5107 172.702 82.5985L172.815 82.8112C172.892 82.9571 173.107 82.9346 173.152 82.7763C173.197 82.6246 173.398 82.5949 173.482 82.7292C173.806 83.2481 174.681 84.0886 177.02 84.5205C180.345 85.1338 182.544 86.4795 182.598 88.7774C182.602 88.9233 182.757 89.0046 182.882 88.9284C183.127 88.7789 183.521 88.7085 184.046 89.1498C184.959 89.9177 184.585 91.9094 182.583 93.5483C182.488 93.6259 182.489 93.7747 182.592 93.8415C182.955 94.0774 183.495 94.6399 182.094 95.389C180.644 96.1641 179.561 96.1003 179.144 96.0313C179.04 96.0139 178.973 95.9137 178.996 95.8114L179.441 93.7922C179.466 93.6782 179.379 93.5693 179.262 93.5693H178.569V93.5701Z" fill="#2F33A7"/>
<path d="M178.486 93.9959C178.486 93.9959 179.223 91.1587 180.496 91.9542C181.767 92.7497 179.836 95.1326 178.813 95.2393L178.486 93.9959Z" fill="url(#paint26_linear)"/>
<path d="M137.268 95.4717C137.322 95.4717 137.376 95.4543 137.42 95.4173C137.524 95.3331 137.54 95.1799 137.455 95.0761C137.246 94.8185 135.387 92.5466 134.672 92.1424C134.411 91.995 134.256 91.8433 134.223 91.7032C134.207 91.6365 134.218 91.561 134.256 91.4753L136.439 91.913L137.676 92.9741C137.777 93.0612 137.931 93.0496 138.018 92.948C138.105 92.8464 138.093 92.6933 137.991 92.6062L136.707 91.5036C136.676 91.4768 136.637 91.4579 136.596 91.4499L134.179 90.9658C134.082 90.9462 133.986 90.9869 133.931 91.0681C133.753 91.3309 133.695 91.5755 133.751 91.815C133.818 92.0981 134.041 92.3434 134.434 92.5655C134.972 92.8696 136.526 94.7023 137.079 95.3832C137.128 95.4412 137.197 95.4717 137.268 95.4717Z" fill="url(#paint27_linear)"/>
<path d="M178.579 135.799L170.034 135.905L173.025 133.089C173.768 132.39 174.903 132.276 175.761 132.833C176.263 133.159 176.808 133.602 177.28 134.188C177.28 134.188 182.611 132.239 185.195 127.881C186 129.076 186.942 130.704 187.757 132.729C185.44 134.087 182.437 135.156 178.579 135.799Z" fill="url(#paint28_linear)"/>
<path d="M177.659 136.9C177.642 136.901 177.625 136.902 177.609 136.902L155.916 136.878C155.38 136.878 154.946 136.447 154.946 135.917C154.947 135.386 155.383 134.948 155.918 134.957L177.611 134.98C178.147 134.981 178.581 135.412 178.58 135.942C178.58 136.456 178.172 136.876 177.659 136.9Z" fill="#2F33A7"/>
<path d="M136.416 117.415H154.481C155.814 117.415 157.027 118.176 157.596 119.369L165.948 136.891H143.497C142.639 136.891 141.867 136.372 141.551 135.582L135.075 119.367C134.7 118.43 135.398 117.415 136.416 117.415Z" fill="#2F33A7"/>
<path d="M149.143 126.398C149.534 127.601 149.246 128.77 148.497 129.009C147.749 129.247 146.825 128.464 146.434 127.261C146.042 126.058 146.331 124.889 147.08 124.65C147.828 124.411 148.752 125.195 149.143 126.398Z" fill="url(#paint29_linear)"/>
<defs>
<linearGradient id="paint0_linear" x1="19.5101" y1="32.3783" x2="22.7278" y2="152.175" gradientUnits="userSpaceOnUse">
<stop stop-color="#09005D"/>
<stop offset="1" stop-color="#1A0F91"/>
</linearGradient>
<linearGradient id="paint1_linear" x1="-7.8057" y1="196.137" x2="177.199" y2="64.9318" gradientUnits="userSpaceOnUse">
<stop stop-color="#4F52FF"/>
<stop offset="1" stop-color="#4042E2"/>
</linearGradient>
<linearGradient id="paint2_linear" x1="167.877" y1="49.2178" x2="178.224" y2="69.2899" gradientUnits="userSpaceOnUse">
<stop stop-color="#4F52FF"/>
<stop offset="1" stop-color="#4042E2"/>
</linearGradient>
<linearGradient id="paint3_linear" x1="132.718" y1="48.8874" x2="143.064" y2="68.9595" gradientUnits="userSpaceOnUse">
<stop stop-color="#4F52FF"/>
<stop offset="1" stop-color="#4042E2"/>
</linearGradient>
<linearGradient id="paint4_linear" x1="97.2297" y1="47.7316" x2="107.576" y2="67.8037" gradientUnits="userSpaceOnUse">
<stop stop-color="#4F52FF"/>
<stop offset="1" stop-color="#4042E2"/>
</linearGradient>
<linearGradient id="paint5_linear" x1="62.0703" y1="46.0811" x2="72.4168" y2="66.1532" gradientUnits="userSpaceOnUse">
<stop stop-color="#4F52FF"/>
<stop offset="1" stop-color="#4042E2"/>
</linearGradient>
<linearGradient id="paint6_linear" x1="32.9245" y1="90.0517" x2="48.9007" y2="109.692" gradientUnits="userSpaceOnUse">
<stop stop-color="#FEBBBA"/>
<stop offset="1" stop-color="#FF928E"/>
</linearGradient>
<linearGradient id="paint7_linear" x1="23.9632" y1="104.338" x2="23.636" y2="91.0866" gradientUnits="userSpaceOnUse">
<stop stop-color="#FEBBBA"/>
<stop offset="1" stop-color="#FF928E"/>
</linearGradient>
<linearGradient id="paint8_linear" x1="28.1892" y1="84.8619" x2="20.506" y2="102.579" gradientUnits="userSpaceOnUse">
<stop stop-color="#FEBBBA"/>
<stop offset="1" stop-color="#FF928E"/>
</linearGradient>
<linearGradient id="paint9_linear" x1="24.3383" y1="83.1899" x2="16.6553" y2="100.906" gradientUnits="userSpaceOnUse">
<stop stop-color="#FEBBBA"/>
<stop offset="1" stop-color="#FF928E"/>
</linearGradient>
<linearGradient id="paint10_linear" x1="5.01297" y1="214.103" x2="34.7407" y2="160.445" gradientUnits="userSpaceOnUse">
<stop stop-color="#FEBBBA"/>
<stop offset="1" stop-color="#FF928E"/>
</linearGradient>
<linearGradient id="paint11_linear" x1="28.8976" y1="175.92" x2="59.4906" y2="155.143" gradientUnits="userSpaceOnUse">
<stop stop-color="#FEBBBA"/>
<stop offset="1" stop-color="#FF928E"/>
</linearGradient>
<linearGradient id="paint12_linear" x1="13.6413" y1="129.83" x2="32.4134" y2="159.276" gradientUnits="userSpaceOnUse">
<stop stop-color="#4F52FF"/>
<stop offset="1" stop-color="#4042E2"/>
</linearGradient>
<linearGradient id="paint13_linear" x1="6.0538" y1="122.25" x2="24.6581" y2="122.25" gradientUnits="userSpaceOnUse">
<stop stop-color="#FEBBBA"/>
<stop offset="1" stop-color="#FF928E"/>
</linearGradient>
<linearGradient id="paint14_linear" x1="36.8564" y1="102.397" x2="34.6479" y2="112.095" gradientUnits="userSpaceOnUse">
<stop stop-color="#4F52FF"/>
<stop offset="1" stop-color="#4042E2"/>
</linearGradient>
<linearGradient id="paint15_linear" x1="35.7001" y1="106.466" x2="34.6439" y2="112.803" gradientUnits="userSpaceOnUse">
<stop stop-color="#4F52FF"/>
<stop offset="1" stop-color="#4042E2"/>
</linearGradient>
<linearGradient id="paint16_linear" x1="23.2584" y1="120.638" x2="29.1335" y2="120.638" gradientUnits="userSpaceOnUse">
<stop stop-color="#FEBBBA"/>
<stop offset="1" stop-color="#FF928E"/>
</linearGradient>
<linearGradient id="paint17_linear" x1="167.092" y1="197.385" x2="180.372" y2="197.385" gradientUnits="userSpaceOnUse">
<stop stop-color="#4F52FF"/>
<stop offset="1" stop-color="#4042E2"/>
</linearGradient>
<linearGradient id="paint18_linear" x1="179.146" y1="191.148" x2="175.405" y2="191.148" gradientUnits="userSpaceOnUse">
<stop stop-color="#FEBBBA"/>
<stop offset="1" stop-color="#FF928E"/>
</linearGradient>
<linearGradient id="paint19_linear" x1="198.986" y1="200.679" x2="204.075" y2="200.679" gradientUnits="userSpaceOnUse">
<stop stop-color="#4F52FF"/>
<stop offset="1" stop-color="#4042E2"/>
</linearGradient>
<linearGradient id="paint20_linear" x1="200.156" y1="189.197" x2="195.685" y2="189.197" gradientUnits="userSpaceOnUse">
<stop stop-color="#FEBBBA"/>
<stop offset="1" stop-color="#FF928E"/>
</linearGradient>
<linearGradient id="paint21_linear" x1="207.171" y1="119.661" x2="186.558" y2="138.065" gradientUnits="userSpaceOnUse">
<stop stop-color="#4F52FF"/>
<stop offset="1" stop-color="#4042E2"/>
</linearGradient>
<linearGradient id="paint22_linear" x1="161.591" y1="115.288" x2="129.936" y2="90.9946" gradientUnits="userSpaceOnUse">
<stop stop-color="#FEBBBA"/>
<stop offset="1" stop-color="#FF928E"/>
</linearGradient>
<linearGradient id="paint23_linear" x1="180.432" y1="69.8326" x2="171.598" y2="93.1455" gradientUnits="userSpaceOnUse">
<stop stop-color="#E1473D"/>
<stop offset="1" stop-color="#E9605A"/>
</linearGradient>
<linearGradient id="paint24_linear" x1="178.131" y1="109.917" x2="176.194" y2="99.7469" gradientUnits="userSpaceOnUse">
<stop stop-color="#FEBBBA"/>
<stop offset="1" stop-color="#FF928E"/>
</linearGradient>
<linearGradient id="paint25_linear" x1="172.89" y1="91.259" x2="183.942" y2="99.7157" gradientUnits="userSpaceOnUse">
<stop stop-color="#FEBBBA"/>
<stop offset="1" stop-color="#FF928E"/>
</linearGradient>
<linearGradient id="paint26_linear" x1="174.26" y1="89.4666" x2="185.313" y2="97.9234" gradientUnits="userSpaceOnUse">
<stop stop-color="#FEBBBA"/>
<stop offset="1" stop-color="#FF928E"/>
</linearGradient>
<linearGradient id="paint27_linear" x1="133.731" y1="93.2159" x2="138.077" y2="93.2159" gradientUnits="userSpaceOnUse">
<stop stop-color="#FF928E"/>
<stop offset="1" stop-color="#FE7062"/>
</linearGradient>
<linearGradient id="paint28_linear" x1="177.593" y1="136.545" x2="193.79" y2="108.815" gradientUnits="userSpaceOnUse">
<stop stop-color="#FEBBBA"/>
<stop offset="1" stop-color="#FF928E"/>
</linearGradient>
<linearGradient id="paint29_linear" x1="146.259" y1="126.829" x2="149.318" y2="126.829" gradientUnits="userSpaceOnUse">
<stop stop-color="#4F52FF"/>
<stop offset="1" stop-color="#4042E2"/>
</linearGradient>
</defs>
</svg>
